<?xml version="1.0" standalone="no"?>
<!DOCTYPE svg PUBLIC "-//W3C//DTD SVG 20010904//EN"
 "http://www.w3.org/TR/2001/REC-SVG-20010904/DTD/svg10.dtd">
<svg version="1.0" xmlns="http://www.w3.org/2000/svg"
 width="319.000000pt" height="500.000000pt" viewBox="0 0 319.000000 500.000000"
 preserveAspectRatio="xMidYMid meet">

<g transform="translate(0.000000,500.000000) scale(0.100000,-0.100000)"
fill="#000000" stroke="none">
<path d="M996 4784 c-33 -33 -13 -69 48 -89 39 -13 41 -39 3 -43 -18 -2 -29 2
-33 12 -7 17 -44 22 -44 6 0 -24 41 -50 78 -50 43 0 72 23 72 57 0 25 -14 37
-62 52 -43 14 -52 41 -14 41 14 0 28 -4 31 -10 9 -15 35 -12 35 5 0 33 -86 48
-114 19z"/>
<path d="M1750 4741 c0 -33 -3 -66 -6 -75 -9 -22 -31 -20 -39 4 -9 29 -35 25
-35 -5 0 -27 25 -45 62 -45 39 0 48 18 48 102 0 63 -3 78 -15 78 -12 0 -15
-13 -15 -59z"/>
<path d="M1952 4713 l3 -87 50 -3 c57 -4 75 11 75 62 0 47 -20 69 -58 63 -30
-4 -32 -2 -32 24 0 22 -5 28 -20 28 -20 0 -21 -5 -18 -87z m88 -2 c14 -27 13
-37 -6 -56 -12 -12 -19 -13 -30 -4 -17 14 -18 51 -2 67 17 17 26 15 38 -7z"/>
<path d="M1150 4776 c0 -7 -7 -19 -16 -27 -14 -12 -14 -14 -1 -24 9 -6 17 -31
19 -56 3 -40 6 -44 31 -47 28 -3 38 15 12 24 -9 4 -15 19 -15 40 0 22 6 37 15
40 8 4 15 10 15 15 0 5 -7 9 -15 9 -8 0 -15 9 -15 20 0 11 -7 20 -15 20 -8 0
-15 -6 -15 -14z"/>
<path d="M1226 4728 c-22 -31 -20 -64 4 -88 24 -24 72 -26 90 -5 17 21 5 31
-22 18 -28 -12 -48 -7 -48 13 0 10 13 14 45 14 49 0 56 10 29 48 -10 15 -25
22 -49 22 -24 0 -39 -7 -49 -22z m72 -15 c2 -8 -6 -13 -22 -13 -25 0 -33 10
-19 24 10 10 36 3 41 -11z"/>
<path d="M1364 4688 c17 -47 28 -63 42 -63 14 0 24 16 41 63 22 60 22 62 3 62
-14 0 -22 -11 -31 -42 l-12 -43 -14 43 c-10 30 -20 42 -34 42 -18 0 -18 -3 5
-62z"/>
<path d="M1487 4732 c-22 -25 -21 -75 1 -95 24 -22 66 -22 88 0 19 20 4 30
-23 15 -11 -7 -24 -7 -35 -1 -31 17 -20 29 27 29 38 0 45 3 45 19 0 47 -71 69
-103 33z m63 -17 c11 -13 8 -15 -20 -15 -28 0 -31 2 -20 15 7 8 16 15 20 15 4
0 13 -7 20 -15z"/>
<path d="M1816 4728 c-34 -48 -7 -108 48 -108 41 0 66 26 66 68 0 40 -23 62
-65 62 -24 0 -39 -7 -49 -22z m74 -17 c14 -27 13 -37 -6 -56 -12 -12 -19 -13
-30 -4 -17 14 -18 51 -2 67 17 17 26 15 38 -7z"/>
<path d="M2109 4734 c-18 -21 -1 -46 40 -58 17 -5 31 -12 31 -17 0 -17 -23
-21 -46 -8 -28 15 -42 6 -24 -16 15 -18 71 -20 88 -3 23 23 13 48 -23 64 -19
8 -35 19 -35 24 0 13 16 13 40 -2 24 -15 37 -4 20 17 -16 20 -74 19 -91 -1z"/>
<path d="M1405 4490 c-3 -6 1 -7 9 -4 18 7 21 14 7 14 -6 0 -13 -4 -16 -10z"/>
<path d="M2175 4420 c-3 -5 -1 -10 4 -10 6 0 11 5 11 10 0 6 -2 10 -4 10 -3 0
-8 -4 -11 -10z"/>
<path d="M1487 4193 c-9 -9 -33 -23 -54 -31 -21 -8 -58 -22 -83 -31 -25 -9
-84 -36 -132 -59 -48 -23 -91 -42 -96 -42 -19 0 -156 -100 -214 -157 -77 -76
-116 -128 -159 -213 -18 -36 -43 -77 -55 -92 -12 -14 -34 -62 -49 -105 -16
-43 -32 -82 -37 -87 -4 -6 -8 -21 -8 -34 0 -13 -4 -31 -9 -40 -18 -35 -40
-170 -46 -286 -4 -87 -11 -131 -26 -162 -10 -24 -19 -47 -19 -51 -1 -4 -9 -26
-20 -48 -24 -49 -26 -152 -5 -245 8 -36 17 -104 19 -151 3 -56 12 -105 26
-140 16 -39 23 -82 26 -154 4 -93 17 -155 33 -155 4 0 7 9 7 20 0 11 -4 20 -9
20 -4 0 -5 5 -2 11 4 6 9 8 12 5 3 -3 14 -1 24 4 12 7 19 6 21 -2 9 -25 36 18
52 81 20 77 20 76 0 57 -21 -22 -37 -20 -29 4 3 10 1 29 -6 41 -10 19 -8 25
12 40 l23 17 -26 -5 c-22 -4 -25 -2 -23 20 2 14 6 35 10 46 4 14 1 31 -9 46
-11 17 -14 37 -10 68 6 42 7 44 30 33 14 -7 24 -20 24 -33 0 -12 5 -25 11 -29
8 -5 10 1 7 20 -5 25 -3 27 23 21 21 -5 30 -2 38 13 11 21 6 32 -15 32 -8 0
-11 -6 -8 -15 4 -8 2 -15 -4 -15 -6 0 -12 6 -15 13 -5 16 3 48 12 43 3 -2 6
15 6 39 0 53 -11 48 -26 -11 -11 -43 -24 -62 -36 -50 -3 3 0 13 7 21 10 12 10
19 2 27 -7 7 -12 38 -12 70 l0 59 22 -21 c24 -22 38 -26 38 -10 0 6 -6 10 -14
10 -25 0 -33 68 -19 150 7 41 11 80 9 87 -3 6 -2 14 2 18 9 9 11 105 2 105 -9
0 -6 32 3 47 4 7 7 27 7 45 -3 75 9 229 21 269 7 24 12 48 11 52 -3 11 36 95
48 102 6 4 8 10 5 15 -3 5 6 17 20 28 29 23 32 32 8 32 -33 0 -1 15 67 31 44
10 75 13 87 7 17 -9 17 -9 0 5 -10 8 -27 13 -37 10 -11 -3 -20 0 -20 6 0 11
18 15 55 11 16 -1 18 1 8 11 -19 19 -16 34 4 18 15 -13 16 -11 9 14 -7 30 4
35 28 11 20 -20 39 -9 31 19 -6 21 -6 22 9 3 15 -19 16 -19 16 10 1 24 3 27
13 14 14 -17 42 -26 32 -10 -3 5 -2 10 4 10 5 0 13 -4 16 -10 3 -5 11 -10 18
-10 8 0 8 3 -1 12 -18 18 -14 32 5 17 15 -13 15 -12 3 11 -10 20 -10 23 0 13
11 -10 16 -9 25 3 10 15 13 15 29 -1 16 -17 17 -16 10 11 l-6 29 17 -23 c19
-26 35 -21 35 11 1 20 2 20 11 5 14 -25 28 -22 21 4 -6 24 0 22 55 -19 22 -17
32 -20 36 -11 3 8 22 -4 53 -34 26 -27 54 -48 62 -48 8 0 0 13 -17 31 -33 32
-33 57 -1 37 10 -7 17 -15 15 -18 -7 -11 54 -42 67 -34 6 4 17 -1 24 -11 13
-17 14 -17 22 5 l9 23 17 -24 c13 -19 18 -21 25 -10 7 11 10 9 16 -8 11 -35
16 -19 6 17 -11 38 0 42 19 7 9 -17 17 -22 25 -15 7 5 15 7 19 3 4 -4 3 4 -3
19 -8 22 -8 26 4 21 8 -3 15 -10 15 -17 0 -6 14 -20 31 -30 25 -15 29 -23 25
-42 -5 -17 -3 -22 7 -18 8 3 25 -10 40 -30 l27 -35 -23 -4 -22 -4 23 -8 c14
-5 22 -15 22 -31 0 -12 4 -25 8 -28 10 -6 9 -36 -1 -53 -5 -7 1 -13 15 -16
l23 -4 -23 -2 c-22 -1 -22 -2 -7 -32 12 -23 13 -34 5 -44 -9 -11 -7 -12 10 -8
19 5 20 3 10 -22 -7 -18 -7 -32 -1 -39 6 -7 6 -18 1 -26 -5 -8 -6 -18 -3 -23
3 -5 9 -3 14 4 6 10 9 7 10 -11 0 -14 3 -19 6 -12 2 6 11 12 19 12 8 0 14 6
14 13 0 8 4 7 10 -3 13 -20 13 -33 0 -25 -5 3 -10 -1 -10 -10 0 -11 5 -15 15
-11 12 4 14 0 9 -20 -4 -17 -2 -30 7 -36 10 -7 11 -11 2 -14 -7 -3 -9 -12 -6
-20 3 -8 -1 -14 -10 -14 -10 0 -13 -7 -10 -20 3 -11 9 -20 14 -20 5 0 7 -11 3
-25 -5 -21 -3 -25 15 -25 14 0 19 -5 15 -15 -4 -9 0 -15 10 -15 14 0 20 -12
17 -32 0 -5 6 -8 15 -8 14 0 14 -3 4 -15 -11 -13 -10 -14 4 -9 20 8 21 -3 0
-23 -8 -9 -13 -24 -11 -35 3 -10 1 -16 -4 -12 -5 3 -14 2 -20 -1 -6 -4 -33 -9
-61 -11 -27 -1 -60 -9 -71 -17 -12 -7 -50 -14 -85 -15 -35 -1 -68 -4 -74 -8
-6 -4 -23 -8 -39 -9 -15 -1 -49 -15 -74 -31 -26 -16 -68 -41 -93 -55 l-47 -27
3 -61 c4 -62 4 -62 -21 -56 -14 4 -33 2 -43 -3 -15 -8 -13 -11 14 -16 46 -11
55 -27 46 -83 -11 -65 -8 -124 7 -133 12 -8 9 -37 -6 -74 -7 -15 -5 -18 8 -13
8 3 21 0 27 -8 8 -10 4 -22 -22 -50 -28 -33 -32 -44 -30 -88 1 -28 7 -54 13
-58 8 -5 8 -8 0 -13 -6 -4 -11 -14 -11 -23 0 -29 -48 -81 -82 -89 -18 -4 -37
-7 -42 -6 -4 2 -13 -2 -20 -7 -6 -5 -26 -8 -44 -7 -18 1 -36 -2 -38 -6 -8 -12
18 -108 27 -102 4 2 10 0 14 -6 3 -5 1 -10 -4 -10 -6 0 -11 -8 -12 -17 0 -14
-2 -13 -9 4 -6 15 -15 21 -25 17 -18 -7 -18 -9 -6 -52 13 -44 5 -40 -16 7 -10
23 -22 37 -29 34 -8 -3 -11 3 -10 14 2 10 1 12 -1 5 -3 -7 -8 -10 -13 -7 -5 3
-12 0 -16 -6 -4 -8 -3 -9 4 -5 8 4 10 -4 7 -25 -4 -34 -15 -52 -15 -25 0 9 -4
15 -10 11 -5 -3 -7 -13 -4 -23 5 -14 4 -15 -5 -2 -6 8 -11 11 -11 5 0 -5 -5
-2 -10 7 -7 11 -7 26 0 44 9 23 9 25 -4 15 -9 -7 -18 -22 -22 -33 -5 -16 -8
-18 -15 -7 -5 8 -9 9 -9 3 0 -17 -39 -58 -48 -50 -4 4 2 14 12 22 11 8 16 14
12 14 -5 0 -3 7 4 15 7 8 9 15 4 15 -4 0 3 11 16 25 13 14 20 28 17 32 -4 3
-13 -2 -21 -12 -7 -10 -18 -15 -25 -11 -13 8 -41 -10 -41 -26 0 -6 7 -5 15 2
25 21 17 3 -11 -25 -27 -27 -54 -27 -54 0 0 8 -4 15 -10 15 -13 0 -13 -17 0
-25 6 -4 8 -14 6 -23 -3 -10 -2 -23 3 -31 8 -12 12 -12 26 2 24 24 27 21 20
-16 -3 -18 -3 -27 2 -20 5 7 8 -4 8 -28 0 -30 -3 -39 -17 -39 -9 0 -19 -4 -22
-9 -4 -5 4 -7 16 -4 20 4 21 3 7 -9 -26 -22 -29 -44 -6 -46 15 -1 18 1 9 7
-11 6 -9 9 6 13 13 4 21 18 27 49 4 24 7 50 6 58 -1 7 2 10 9 6 6 -4 20 1 30
10 15 14 25 15 48 7 17 -6 35 -6 44 -1 10 5 26 5 40 0 34 -13 144 -23 283 -27
66 -1 130 -3 143 -3 21 -1 33 -31 11 -31 -5 0 -7 -5 -3 -11 4 -7 21 -9 43 -5
74 13 86 9 76 -23 -4 -14 -12 -18 -29 -15 -17 3 -29 -4 -46 -26 -13 -17 -30
-28 -37 -26 -7 3 -13 0 -13 -7 0 -8 -4 -6 -10 3 -8 13 -10 12 -10 -2 0 -12 -8
-18 -21 -18 -15 0 -19 -5 -15 -15 3 -8 1 -15 -4 -15 -6 0 -10 9 -10 20 0 11
-7 20 -15 20 -8 0 -15 -4 -15 -10 0 -5 -11 -10 -25 -10 -14 0 -25 5 -25 10 0
6 -5 10 -11 10 -6 0 -9 -6 -7 -12 3 -7 -1 -19 -9 -26 -7 -8 -11 -23 -7 -37 3
-12 1 -26 -5 -29 -6 -4 -11 -14 -11 -22 0 -8 4 -13 8 -10 5 3 6 -8 4 -24 -4
-26 -1 -29 18 -25 16 3 20 0 16 -10 -3 -10 1 -15 13 -15 10 0 22 7 25 16 4 11
2 15 -8 11 -22 -9 -27 18 -11 60 16 43 20 34 6 -14 -9 -32 -9 -32 14 -17 25
17 38 41 30 55 -4 5 0 6 8 3 7 -2 14 -10 14 -17 0 -7 4 -19 8 -29 4 -11 0 -18
-14 -23 -12 -3 -21 -10 -21 -14 0 -16 13 -20 31 -11 16 9 17 6 12 -27 -3 -21
-2 -35 2 -30 9 7 15 36 16 69 0 10 5 21 11 24 7 4 8 2 4 -4 -4 -7 -2 -20 3
-29 8 -15 11 -15 12 -3 1 8 1 19 0 23 -1 5 3 6 9 2 14 -9 13 18 -2 35 -7 7 -1
5 14 -6 14 -10 22 -20 17 -22 -5 -2 -9 -10 -9 -18 0 -8 -4 -14 -10 -14 -5 0
-10 -7 -10 -16 0 -9 5 -12 12 -8 8 5 9 2 5 -10 -7 -19 18 -100 40 -131 14 -19
15 -19 8 4 -6 19 -4 23 8 18 11 -4 14 -2 11 8 -3 8 -12 11 -20 8 -14 -5 -16
-1 -18 47 -1 14 -7 35 -14 46 -9 18 -9 24 2 34 11 9 17 7 25 -7 6 -10 11 -13
11 -8 0 6 5 3 10 -5 7 -12 9 -10 7 8 -1 15 -6 21 -17 17 -8 -3 -5 3 7 14 12
10 20 21 18 25 -3 3 1 2 7 -4 16 -14 26 -13 25 3 -1 30 4 47 14 47 6 0 8 -9 3
-22 -6 -20 -5 -21 10 -6 9 9 17 28 18 42 2 19 7 25 19 21 13 -4 15 0 11 20 -2
14 0 31 6 38 5 6 13 27 17 45 4 18 17 45 30 60 12 15 25 36 27 47 2 11 10 19
16 17 7 -1 12 5 12 14 0 10 6 14 14 11 8 -3 17 -1 20 6 2 7 5 0 5 -14 1 -15 8
-33 17 -40 15 -12 16 -11 9 10 -5 18 -4 22 5 16 8 -5 11 -4 7 2 -8 13 11 83
28 99 15 16 25 8 26 -20 0 -12 7 6 16 38 14 54 14 62 -1 94 -9 19 -15 36 -13
38 8 9 35 -8 41 -24 3 -9 12 -32 20 -49 10 -22 11 -32 4 -30 -7 1 -14 -6 -16
-17 -2 -10 0 -16 6 -12 6 4 8 -2 4 -16 -3 -13 -1 -19 5 -15 6 4 14 -4 17 -17
3 -13 8 -32 12 -43 3 -10 -3 -4 -12 12 -12 22 -19 26 -22 15 -3 -8 -9 -18 -15
-22 -5 -3 -11 -23 -13 -45 -2 -21 -3 -42 -4 -48 0 -5 -7 4 -14 20 l-13 30 1
-39 c1 -21 -4 -41 -9 -43 -7 -2 -9 13 -7 39 4 39 3 41 -12 25 -10 -9 -25 -17
-33 -17 -14 0 -13 -3 3 -22 10 -12 13 -18 7 -14 -7 4 -13 2 -13 -4 0 -6 -5 -8
-11 -5 -6 4 -5 -2 2 -13 7 -12 16 -19 20 -16 4 2 10 0 14 -6 3 -5 1 -10 -4
-10 -6 0 -9 -10 -7 -23 7 -34 7 -34 16 -7 l8 25 1 -27 c1 -35 -7 -35 -42 -3
-15 14 -27 22 -27 17 0 -5 9 -17 20 -27 11 -10 20 -24 20 -32 0 -16 -5 -16
-31 -3 -23 13 -24 8 -2 -33 21 -38 24 -67 11 -84 -5 -7 -7 -22 -3 -35 5 -20 4
-20 -12 4 -10 16 -33 35 -53 45 -19 9 -41 23 -48 32 -10 14 -11 13 -5 -4 3
-11 12 -29 20 -40 7 -11 13 -30 13 -42 0 -13 5 -23 11 -23 5 0 7 -5 4 -10 -5
-8 -11 -7 -21 1 -21 17 -29 3 -10 -17 24 -24 10 -31 -16 -8 -19 17 -21 17 -15
2 4 -10 2 -18 -4 -18 -6 0 -7 -5 -4 -10 4 -6 10 -8 14 -5 5 2 9 -6 9 -19 0
-12 -6 -23 -14 -23 -7 0 -11 4 -8 9 3 4 3 8 -1 8 -14 0 -24 -51 -15 -76 9 -23
8 -25 -6 -20 -15 6 -15 4 -3 -11 7 -10 9 -15 5 -11 -5 4 -16 2 -24 -5 -15 -12
-15 -9 6 53 3 9 -2 7 -12 -5 -11 -14 -15 -15 -14 -5 2 8 -2 14 -8 13 -7 -1 -9
8 -6 24 4 22 2 25 -12 20 -10 -4 -20 -7 -22 -7 -2 0 -4 -7 -4 -15 0 -8 4 -15
8 -15 14 0 10 -33 -5 -48 -11 -11 -13 -10 -13 10 0 18 -2 20 -9 8 -6 -8 -7
-18 -5 -22 3 -4 0 -8 -6 -8 -6 0 -8 -5 -5 -10 3 -6 -1 -10 -9 -10 -18 0 -21
11 -6 26 7 7 6 21 -5 45 l-15 34 1 -40 c1 -56 0 -62 -10 -46 -5 8 -8 36 -7 63
2 27 -1 51 -6 54 -5 3 -7 12 -5 18 3 7 1 19 -5 27 -8 11 -9 10 -4 -4 7 -22 -3
-22 -21 1 -13 16 -13 15 -7 -7 5 -20 3 -23 -10 -18 -14 6 -16 3 -11 -14 6 -18
5 -19 -14 -7 -12 7 -21 16 -21 21 0 4 -4 5 -10 2 -5 -3 -10 -11 -10 -16 0 -6
5 -7 10 -4 6 3 10 -3 10 -14 0 -25 -20 -38 -31 -20 -7 11 -9 10 -9 -4 0 -10
-4 -16 -9 -12 -5 3 -13 0 -17 -6 -3 -6 0 -15 7 -20 9 -6 10 -9 2 -9 -6 0 -19
10 -27 22 -15 21 -16 21 -16 2 0 -11 7 -29 15 -41 12 -18 13 -27 2 -59 -9 -24
-16 -33 -21 -25 -4 6 -2 18 4 26 10 12 9 20 -4 40 -22 34 -36 23 -36 -28 0
-26 -3 -37 -9 -29 -6 10 -10 10 -20 -2 -8 -9 -8 -16 -2 -20 6 -4 8 -13 4 -22
-5 -12 -8 -12 -20 3 -14 17 -14 17 -10 -4 3 -13 2 -23 -2 -23 -8 0 -32 100
-26 110 2 3 -2 7 -9 7 -9 0 -12 -13 -10 -41 3 -31 1 -36 -6 -21 -8 18 -9 17
-9 -8 -1 -18 -5 -26 -12 -21 -8 4 -9 0 -4 -15 4 -15 2 -21 -8 -21 -18 0 -28
24 -21 48 4 9 -4 1 -17 -18 -18 -27 -24 -31 -27 -17 -2 9 -12 17 -23 17 -16 0
-18 5 -13 25 4 16 2 25 -6 25 -6 0 -8 -4 -5 -10 3 -5 -2 -10 -12 -10 -10 0
-29 -7 -41 -16 -12 -8 -22 -11 -22 -6 0 5 12 15 28 22 15 7 22 15 14 17 -6 3
-9 10 -5 16 4 6 0 8 -10 4 -12 -4 -17 -1 -17 10 0 13 -3 13 -15 3 -13 -11 -14
-10 -9 4 5 12 2 15 -9 10 -12 -4 -14 0 -10 18 6 21 5 22 -12 8 -17 -14 -18
-13 -12 3 7 18 -7 24 -18 7 -8 -13 -35 -13 -35 0 0 6 3 9 8 8 4 0 18 4 32 11
l25 11 -27 -5 c-34 -6 -61 4 -54 21 3 7 0 15 -7 18 -7 4 -2 4 9 2 33 -6 51 9
35 28 -10 12 -10 16 -2 16 7 0 9 5 6 10 -4 7 -13 7 -26 0 -22 -12 -60 -9 -99
8 -22 9 -19 10 21 7 26 -1 52 -5 58 -9 6 -4 11 -3 11 3 0 5 8 12 18 14 14 4
14 5 -3 6 -17 1 -18 3 -5 11 13 8 12 10 -2 10 -10 0 -18 4 -18 8 0 4 -30 7
-67 5 -48 -2 -62 0 -48 6 15 7 16 10 4 10 -24 1 -19 31 5 31 12 0 30 2 41 4
11 2 14 1 6 -1 -12 -4 -12 -6 0 -15 10 -7 8 -8 -9 -5 -12 3 -22 1 -22 -4 0
-17 45 -9 57 10 11 17 9 21 -17 30 -32 11 -41 31 -14 31 8 0 12 5 9 10 -3 5
-1 10 6 10 6 0 1 8 -12 19 -20 16 -21 21 -10 34 7 9 21 32 31 52 14 27 15 35
4 35 -7 0 -18 -8 -23 -17 -8 -14 -11 -15 -11 -3 0 8 -7 3 -16 -12 -8 -16 -22
-28 -32 -28 -9 0 -28 -3 -42 -6 -22 -6 -20 -2 14 27 35 29 37 34 20 40 -18 7
-17 8 4 15 12 3 22 13 22 22 0 12 -5 10 -24 -7 -14 -13 -22 -29 -19 -36 3 -8
-9 -20 -29 -31 -57 -29 -61 -34 -41 -57 10 -11 12 -17 6 -13 -9 5 -11 2 -7 -8
3 -8 19 -18 34 -21 26 -6 28 -9 17 -26 -10 -16 -9 -22 3 -30 12 -9 12 -10 -3
-5 -10 3 -21 6 -23 6 -3 0 -2 4 1 10 3 6 -1 7 -9 4 -20 -8 -20 -9 1 -29 12
-13 13 -19 4 -24 -9 -6 -8 -13 6 -26 17 -17 17 -18 1 -12 -15 5 -18 0 -18 -32
0 -21 -7 -54 -14 -73 -14 -33 -31 -129 -45 -263 -6 -57 -9 -63 -66 -117 -41
-39 -76 -63 -110 -74 -27 -9 -54 -20 -60 -24 -5 -4 -24 -11 -41 -14 -17 -4
-46 -18 -64 -31 -18 -13 -58 -29 -89 -36 -31 -6 -113 -34 -184 -61 l-127 -49
0 -200 0 -199 1595 0 1595 0 0 198 0 198 -67 38 c-66 37 -285 116 -321 116
-10 0 -28 8 -42 17 -46 32 -134 73 -159 74 -51 1 -91 25 -136 79 -28 34 -47
68 -50 90 -3 19 -10 56 -16 82 -11 51 -6 131 17 268 8 47 16 96 18 110 3 14 5
25 6 25 1 0 3 10 6 21 2 12 17 47 34 77 29 53 107 307 126 411 8 44 12 50 44
60 47 15 78 74 135 256 51 161 70 308 63 474 -5 112 -21 157 -65 179 -16 9
-27 24 -29 38 -1 13 -5 50 -8 82 -4 41 -2 56 5 51 12 -7 5 89 -8 109 -4 6 0 8
10 4 18 -7 24 8 7 18 -5 3 -10 18 -10 33 -1 15 -7 44 -14 65 -12 32 -12 37 1
37 13 0 13 2 2 17 -8 9 -13 18 -11 20 7 10 -1 34 -23 67 -14 20 -25 45 -26 54
0 9 -9 31 -20 47 -10 17 -23 41 -29 54 -6 13 -23 36 -38 52 -15 16 -28 41 -29
55 -1 15 -10 36 -21 48 -10 11 -39 54 -66 94 -26 39 -50 72 -54 72 -4 0 -30
23 -57 50 -66 66 -238 183 -333 226 -98 45 -264 100 -327 110 -27 3 -61 8 -75
11 -14 2 -43 5 -65 6 -22 1 -45 5 -51 9 -6 4 -18 0 -27 -9z m128 -29 c17 -3
24 -9 18 -11 -17 -6 -83 16 -83 28 0 6 7 5 18 0 9 -6 31 -13 47 -17z m-81
-333 c-4 -3 -9 0 -11 7 -3 6 -10 9 -15 6 -7 -4 -8 -2 -4 5 6 9 11 9 22 0 8 -6
12 -15 8 -18z m-124 -51 c0 -5 -4 -10 -10 -10 -5 0 -10 5 -10 10 0 6 5 10 10
10 6 0 10 -4 10 -10z m-464 -130 c8 0 14 -4 14 -10 0 -5 -8 -10 -18 -10 -11 0
-18 8 -19 23 0 12 1 16 4 10 3 -7 11 -13 19 -13z m948 -5 c3 -9 0 -15 -9 -15
-8 0 -15 7 -15 15 0 8 4 15 9 15 5 0 11 -7 15 -15z m-1054 -24 c0 -6 -4 -13
-10 -16 -5 -3 -10 1 -10 9 0 9 5 16 10 16 6 0 10 -4 10 -9z m30 -31 c0 -5 -4
-10 -10 -10 -5 0 -10 5 -10 10 0 6 5 10 10 10 6 0 10 -4 10 -10z m1250 -630
c0 -5 -2 -10 -4 -10 -3 0 -8 5 -11 10 -3 6 -1 10 4 10 6 0 11 -4 11 -10z
m-1467 -80 c-18 -75 -39 -107 -29 -45 6 39 36 118 42 112 2 -1 -4 -32 -13 -67z
m-41 -122 c-7 -7 -12 -8 -12 -2 0 14 12 26 19 19 2 -3 -1 -11 -7 -17z m1393
-39 c33 -12 66 -36 95 -66 44 -47 44 -47 5 -12 -22 19 -52 43 -67 52 -44 27
-136 44 -198 36 -67 -9 -77 -4 -18 9 53 12 117 5 183 -19z m-1398 -11 c-3 -8
-6 -5 -6 6 -1 11 2 17 5 13 3 -3 4 -12 1 -19z m1558 -139 c9 -17 15 -33 13
-35 -3 -2 -12 12 -21 31 -21 43 -13 47 8 4z m-270 11 c3 -6 -4 -10 -17 -10
-18 0 -20 2 -8 10 19 12 18 12 25 0z m-60 -49 c9 -30 49 -35 133 -16 20 5 23
3 17 -14 -5 -16 -1 -22 19 -27 14 -3 29 -3 35 0 23 15 18 -13 -7 -37 -22 -21
-40 -27 -79 -29 -28 -2 -49 -7 -46 -11 8 -13 113 3 166 26 26 11 53 29 58 39
8 15 14 17 22 8 9 -9 8 -15 -6 -25 -12 -9 -15 -15 -7 -20 6 -4 20 1 31 11 18
16 19 16 19 -9 0 -15 5 -27 10 -27 6 0 10 10 10 23 0 20 7 25 50 33 28 6 50 7
50 2 0 -4 -8 -8 -17 -8 -13 0 -14 -3 -5 -12 16 -16 15 -29 -2 -22 -8 3 -17 1
-21 -5 -3 -6 -2 -11 3 -11 6 0 13 -7 16 -16 5 -12 2 -15 -10 -10 -12 5 -15 2
-10 -10 8 -22 -4 -85 -15 -78 -5 3 -9 -2 -9 -10 0 -10 -6 -13 -16 -9 -13 5
-15 2 -10 -15 4 -11 2 -23 -4 -27 -5 -3 -10 -15 -10 -26 0 -10 -6 -19 -12 -20
-10 0 -10 -2 0 -6 20 -8 13 -23 -10 -20 -21 2 -23 -2 -24 -55 -1 -33 3 -58 8
-58 7 0 6 -5 -1 -13 -6 -8 -8 -16 -5 -19 3 -3 -10 -16 -28 -29 -56 -40 -64
-49 -47 -61 11 -7 9 -8 -6 -3 -11 3 -33 9 -50 12 -16 2 -43 10 -59 16 -23 9
-30 8 -38 -6 -8 -15 -12 -16 -38 -2 -16 8 -35 15 -42 14 -10 0 -10 -2 0 -6 6
-2 10 -9 6 -14 -9 -15 -41 -10 -48 7 -8 21 33 55 62 50 40 -6 24 20 -33 54
-22 13 -57 41 -78 63 -36 36 -37 39 -18 44 12 3 21 10 21 15 0 6 -9 8 -21 5
-25 -7 -49 1 -49 15 0 6 7 5 15 -2 33 -27 27 3 -6 33 -20 18 -43 43 -51 57
-15 23 -14 27 2 44 18 18 19 17 27 -15 9 -33 29 -50 31 -27 1 7 4 26 8 42 4
18 2 31 -6 36 -18 11 -4 44 15 36 18 -7 20 5 3 23 -10 11 -10 14 0 18 20 8 14
22 -8 18 -11 -2 -18 0 -15 6 4 5 1 9 -6 9 -24 0 6 20 37 25 77 13 94 18 94 25
0 5 -9 12 -20 15 -11 4 -18 11 -15 16 10 16 33 10 40 -10z m-254 -64 c-10 -9
-11 -8 -5 6 3 10 9 15 12 12 3 -3 0 -11 -7 -18z m53 -32 c-4 -8 -10 -15 -15
-15 -5 0 -9 7 -9 15 0 8 7 15 15 15 9 0 12 -6 9 -15z m-1080 -107 c8 -5 7 -8
-1 -8 -7 0 -13 -9 -13 -19 0 -11 -4 -22 -9 -25 -11 -7 -21 29 -20 79 l0 40 16
-30 c9 -16 21 -33 27 -37z m17 -90 c-11 -11 -13 -10 -7 0 4 7 2 21 -5 30 -12
15 -11 15 6 0 16 -15 17 -20 6 -30z m-21 12 c0 -5 -2 -10 -4 -10 -3 0 -8 5
-11 10 -3 6 -1 10 4 10 6 0 11 -4 11 -10z m1114 -28 c13 -9 21 -23 18 -30 -5
-16 -32 3 -32 23 0 8 -6 16 -12 18 -7 3 -9 6 -5 6 5 1 19 -7 31 -17z m-1091
-28 c-7 -19 -8 -18 -27 11 -16 24 -16 25 8 14 14 -7 22 -17 19 -25z m15 -58
c-8 -20 -8 -32 1 -52 6 -14 9 -30 6 -35 -4 -5 -2 -9 3 -9 15 0 2 -38 -14 -44
-10 -4 -14 3 -15 22 -1 15 -3 41 -4 57 -5 41 17 120 27 101 5 -8 3 -26 -4 -40z
m1123 -78 c6 -22 2 -30 -17 -43 -24 -16 -63 -19 -101 -9 -22 6 -22 6 -3 27 56
60 109 71 121 25z m-1083 8 c-7 -8 -15 -12 -17 -11 -5 6 10 25 20 25 5 0 4 -6
-3 -14z m1192 -51 c0 -1 -7 -8 -15 -15 -13 -10 -15 -9 -15 8 0 15 5 20 15 16
8 -4 15 -7 15 -9z m40 -119 c0 -2 -7 -7 -16 -10 -8 -3 -12 -2 -9 4 6 10 25 14
25 6z m144 -32 c9 -8 16 -12 16 -7 0 4 7 -3 16 -15 20 -29 13 -37 -16 -22 -18
10 -21 9 -17 -2 2 -7 10 -12 16 -10 6 1 11 -2 11 -8 0 -12 -20 -13 -35 -2 -15
10 -35 49 -35 67 0 20 24 19 44 -1z m-103 -22 c-6 -2 -8 -9 -4 -15 4 -7 0 -7
-9 1 -9 8 -14 20 -11 28 4 12 8 12 20 2 10 -8 11 -14 4 -16z m-485 -14 c17
-19 17 -21 2 -15 -13 4 -22 -2 -32 -21 -19 -33 -21 -7 -3 31 6 15 12 27 13 27
0 0 9 -10 20 -22z m443 8 c7 -8 8 -17 3 -20 -6 -3 -12 3 -15 14 -6 24 -4 25
12 6z m232 -30 c11 -11 16 -22 13 -25 -9 -9 -44 39 -43 58 0 13 2 13 6 1 3 -8
14 -23 24 -34z m-751 20 c0 -2 -7 -6 -15 -10 -8 -3 -15 -1 -15 4 0 6 7 10 15
10 8 0 15 -2 15 -4z m620 -6 c18 -12 2 -12 -25 0 -13 6 -15 9 -5 9 8 0 22 -4
30 -9z m360 -84 c0 -39 -6 -31 -14 19 -5 29 -4 36 3 25 6 -8 11 -28 11 -44z
m-347 24 c3 -11 1 -18 -4 -14 -5 3 -9 12 -9 20 0 20 7 17 13 -6z m71 -15 c-4
-8 -11 -12 -16 -9 -6 4 -5 10 3 15 19 12 19 11 13 -6z m299 0 c4 -8 2 -17 -3
-20 -6 -4 -10 3 -10 14 0 25 6 27 13 6z m-275 -40 c-3 -3 -9 2 -12 12 -6 14
-5 15 5 6 7 -7 10 -15 7 -18z m232 15 c0 -5 -2 -10 -4 -10 -3 0 -8 5 -11 10
-3 6 -1 10 4 10 6 0 11 -4 11 -10z m6 -29 c11 9 14 8 14 -7 0 -11 -5 -26 -10
-34 -8 -13 -10 -13 -10 1 0 9 -7 22 -15 29 -8 7 -15 18 -15 24 0 6 5 3 11 -7
8 -14 14 -16 25 -6z m-36 -26 c5 3 11 -4 15 -15 3 -11 11 -20 16 -20 6 0 7 -5
4 -10 -5 -8 -12 -7 -22 2 -14 11 -15 10 -8 -11 5 -16 4 -21 -4 -17 -6 4 -11
12 -11 18 0 6 -8 21 -17 32 -10 12 -11 15 -3 9 18 -17 38 -17 22 -1 -7 7 -12
17 -11 23 0 5 3 4 6 -3 2 -6 8 -10 13 -7z m-223 -17 c-3 -8 -6 -5 -6 6 -1 11
2 17 5 13 3 -3 4 -12 1 -19z m143 -71 c0 -5 -4 -5 -10 -2 -5 3 -10 14 -10 23
0 15 2 15 10 2 5 -8 10 -19 10 -23z m93 -12 c-3 -9 -8 -14 -10 -11 -3 3 -2 9
2 15 9 16 15 13 8 -4z m-37 -53 c-3 -3 -6 0 -6 7 0 7 -4 10 -9 7 -10 -7 -22
30 -13 39 3 3 12 -6 20 -21 7 -14 11 -28 8 -32z m-466 -96 c0 -12 -5 -7 -19
24 -11 24 -11 24 3 6 9 -11 16 -24 16 -30z m-141 -106 c0 -10 -3 -8 -9 5 -12
27 -12 43 0 25 5 -8 9 -22 9 -30z m-744 -20 c-3 -5 -1 -10 4 -10 6 0 11 -5 11
-11 0 -5 -4 -8 -9 -4 -5 3 -12 1 -16 -5 -3 -5 -12 -10 -18 -10 -7 0 -3 7 7 15
11 8 16 15 12 15 -4 0 -4 5 -1 10 3 6 8 10 11 10 3 0 2 -4 -1 -10z m1107 -75
c3 -13 1 -22 -3 -19 -9 5 -13 44 -5 44 2 0 6 -11 8 -25z m-1052 -61 c0 -11 -5
-14 -16 -10 -9 3 -23 6 -32 7 -14 0 -13 2 3 9 31 13 45 11 45 -6z m735 -55
c11 -17 -1 -21 -15 -4 -8 9 -8 15 -2 15 6 0 14 -5 17 -11z m-6 -79 c0 -8 -7 1
-14 20 -18 46 -17 64 0 25 8 -16 14 -37 14 -45z m-808 8 c16 -18 29 -38 29
-45 0 -7 5 -13 11 -13 6 0 9 -10 7 -22 -2 -13 -9 -22 -15 -21 -7 2 -10 -4 -6
-13 5 -15 7 -15 15 0 14 25 27 19 45 -19 14 -29 19 -33 26 -19 6 11 2 23 -15
41 -12 13 -17 23 -9 21 7 -2 16 3 18 10 3 7 1 12 -4 11 -22 -4 -33 3 -33 21 0
18 1 18 25 -4 14 -13 25 -34 25 -47 0 -33 42 -110 71 -129 14 -9 20 -10 15 -2
-4 7 -2 12 7 12 8 0 27 -17 43 -37 15 -20 30 -31 32 -25 4 12 6 11 62 -41 21
-19 37 -26 50 -22 22 7 80 -31 80 -52 0 -7 6 -10 15 -7 8 4 15 1 15 -5 0 -7
14 -17 30 -22 28 -10 41 -29 20 -29 -5 0 -10 -7 -10 -15 0 -8 5 -15 12 -15 8
0 7 -6 -4 -16 -15 -15 -27 -11 -150 48 -163 79 -226 118 -313 197 -100 90
-137 143 -155 219 -10 40 14 45 32 6 11 -23 13 -24 19 -7 5 13 -1 25 -24 45
-25 22 -28 28 -14 28 10 0 31 -15 48 -32z m116 -4 c-3 -3 -12 -4 -19 -1 -8 3
-5 6 6 6 11 1 17 -2 13 -5z m648 -63 c3 -7 3 -11 -2 -10 -20 4 -32 -2 -36 -18
-2 -10 -4 -2 -3 18 1 21 4 35 9 32 4 -2 7 6 8 19 1 21 1 21 9 -4 4 -14 11 -31
15 -37z m-158 -3 c-3 -7 -5 -2 -5 12 0 14 2 19 5 13 2 -7 2 -19 0 -25z m223
22 c0 -5 -4 -10 -9 -10 -6 0 -13 5 -16 10 -3 6 1 10 9 10 9 0 16 -4 16 -10z
m-645 -10 c4 -6 10 -8 15 -5 4 3 13 -2 20 -10 11 -13 8 -15 -14 -15 -14 0 -26
4 -26 10 0 5 -6 8 -12 6 -7 -1 -10 -1 -5 1 4 3 5 9 1 14 -3 5 -1 9 5 9 5 0 13
-5 16 -10z m622 -33 c3 -40 -14 -42 -19 -2 -2 22 0 34 6 32 6 -2 12 -15 13
-30z m24 -10 c-10 -9 -11 -8 -5 6 3 10 9 15 12 12 3 -3 0 -11 -7 -18z m57 -23
c-10 -10 -28 6 -28 24 0 15 1 15 17 -1 9 -9 14 -19 11 -23z m-623 6 c-3 -5
-12 -10 -18 -10 -7 0 -6 4 3 10 19 12 23 12 15 0z m352 -47 c-3 -10 -5 -4 -5
12 0 17 2 24 5 18 2 -7 2 -21 0 -30z m-110 -5 c-3 -8 -6 -5 -6 6 -1 11 2 17 5
13 3 -3 4 -12 1 -19z m-163 -7 c11 -4 15 -10 10 -13 -5 -4 -18 0 -29 8 -20 15
-12 17 19 5z m271 -331 c-3 -5 -1 -10 6 -10 9 0 10 -3 3 -10 -6 -6 -21 -6 -39
-1 l-30 9 25 10 c32 14 43 14 35 2z m50 -38 c-3 -3 -11 0 -18 7 -9 10 -8 11 6
5 10 -3 15 -9 12 -12z"/>
<path d="M826 965 c4 -8 8 -15 10 -15 2 0 4 7 4 15 0 8 -4 15 -10 15 -5 0 -7
-7 -4 -15z"/>
<path d="M885 950 c3 -5 11 -10 16 -10 6 0 7 5 4 10 -3 6 -11 10 -16 10 -6 0
-7 -4 -4 -10z"/>
<path d="M1273 665 c0 -8 3 -12 7 -10 4 3 15 -4 25 -15 10 -11 22 -17 26 -14
14 8 11 24 -5 24 -7 0 -19 7 -26 15 -16 19 -27 19 -27 0z"/>
<path d="M1020 3630 c0 -5 5 -10 11 -10 5 0 7 5 4 10 -3 6 -8 10 -11 10 -2 0
-4 -4 -4 -10z"/>
<path d="M730 2725 c0 -23 -3 -26 -10 -15 -15 24 -12 2 5 -30 9 -17 11 -30 5
-30 -16 0 -12 -37 5 -44 15 -5 22 9 8 17 -5 2 -2 2 4 1 7 -2 36 13 65 32 29
19 65 38 81 41 15 3 27 10 27 14 0 5 -12 7 -27 3 -22 -4 -25 -3 -13 6 12 9 6
10 -27 8 -23 -2 -39 0 -37 3 4 8 -31 21 -63 23 -19 2 -23 -3 -23 -29z m30 -40
c0 -8 -4 -15 -10 -15 -5 0 -10 7 -10 15 0 8 5 15 10 15 6 0 10 -7 10 -15z"/>
<path d="M875 2677 c-47 -19 -75 -37 -75 -49 0 -6 3 -9 6 -5 3 3 26 -3 52 -14
25 -11 51 -18 58 -15 8 3 16 1 20 -5 3 -6 13 -8 21 -5 8 3 12 2 9 -3 -5 -8
-30 -14 -99 -28 -32 -6 -61 -32 -62 -55 0 -17 -5 -22 -20 -20 -18 2 -17 0 5
-18 20 -17 21 -19 5 -14 -17 6 -18 5 -7 -7 8 -9 17 -10 26 -4 68 50 65 50 185
48 78 0 116 -4 119 -12 3 -8 9 -6 18 6 8 11 13 13 14 5 0 -9 15 -12 55 -10 56
3 62 9 56 56 -3 21 8 13 30 -20 l21 -33 -7 45 c-4 25 -8 59 -8 76 -1 27 -4 31
-30 31 -16 0 -32 4 -35 10 -4 6 -18 14 -32 18 l-25 7 26 -28 c15 -16 34 -42
44 -59 17 -29 10 -23 -30 26 -49 61 -75 71 -189 72 -58 1 -106 5 -106 9 0 10
-8 9 -45 -5z m190 -127 c3 -5 -1 -10 -10 -10 -9 0 -13 5 -10 10 3 6 8 10 10
10 2 0 7 -4 10 -10z"/>
<path d="M760 2590 c-26 -36 -20 -39 14 -5 14 13 21 27 16 30 -5 3 -18 -8 -30
-25z"/>
<path d="M1328 2485 c-18 -15 -23 -25 -15 -28 9 -4 9 -6 -1 -6 -7 -1 -10 -5
-7 -11 3 -5 0 -7 -9 -4 -20 8 -62 -21 -46 -31 7 -4 17 -2 23 4 19 19 30 12 25
-14 -3 -14 -2 -25 3 -25 4 0 10 19 14 42 4 23 18 52 31 65 40 40 26 47 -18 8z"/>
<path d="M1018 2373 c7 -3 16 -2 19 1 4 3 -2 6 -13 5 -11 0 -14 -3 -6 -6z"/>
<path d="M630 2349 c0 -5 5 -7 10 -4 6 3 10 8 10 11 0 2 -4 4 -10 4 -5 0 -10
-5 -10 -11z"/>
<path d="M701 1975 c-1 -15 -3 -17 -10 -6 -12 19 -26 8 -57 -45 -14 -24 -28
-44 -31 -44 -2 0 -1 5 2 10 3 6 1 10 -5 10 -7 0 -9 -7 -6 -16 3 -9 6 -20 6
-25 0 -21 21 -6 34 24 7 19 28 45 46 59 19 15 30 31 27 39 -3 9 -6 7 -6 -6z"/>
<path d="M617 1953 c-4 -3 -7 -11 -7 -17 0 -6 5 -5 12 2 6 6 9 14 7 17 -3 3
-9 2 -12 -2z"/>
<path d="M720 1931 c0 -7 -4 -9 -10 -6 -5 3 -10 1 -10 -5 0 -6 -10 -10 -22 -8
-18 2 -23 -2 -25 -27 -1 -16 -7 -31 -13 -33 -7 -3 -5 -11 6 -23 17 -19 34 -17
34 4 0 7 -4 6 -10 -3 -5 -8 -10 -10 -10 -5 0 6 8 22 17 35 10 14 17 27 16 30
0 3 3 4 8 3 10 -3 33 37 25 45 -3 3 -6 0 -6 -7z"/>
<path d="M1299 1900 c23 -20 41 -26 41 -14 0 11 -34 33 -50 33 -10 0 -8 -6 9
-19z"/>
<path d="M687 1864 c-4 -4 -4 -18 -1 -30 4 -15 2 -24 -5 -24 -6 0 -11 -8 -11
-17 0 -15 -2 -14 -14 3 -13 17 -13 14 -1 -21 7 -22 10 -42 7 -45 -14 -11 -11
-30 4 -30 13 0 14 -3 4 -15 -7 -8 -9 -23 -4 -37 7 -23 7 -22 20 7 6 17 10 34
7 38 -10 17 -11 77 0 70 6 -4 8 0 4 10 -3 9 -2 31 3 49 9 31 1 56 -13 42z"/>
<path d="M810 1835 c0 -8 5 -15 10 -15 6 0 10 7 10 15 0 8 -4 15 -10 15 -5 0
-10 -7 -10 -15z"/>
<path d="M1002 1811 c-35 -34 -54 -65 -45 -74 3 -4 18 9 33 28 15 19 30 32 33
29 3 -3 14 0 26 7 15 10 17 16 9 26 -15 18 -21 17 -56 -16z"/>
<path d="M1196 1763 c-6 -14 -5 -15 5 -6 7 7 10 15 7 18 -3 3 -9 -2 -12 -12z"/>
<path d="M718 1744 c-5 -4 -8 -19 -8 -33 1 -23 2 -24 11 -8 11 19 9 53 -3 41z"/>
<path d="M1125 1719 c-4 -6 -5 -12 -2 -15 2 -3 7 2 10 11 7 17 1 20 -8 4z"/>
<path d="M1012 1690 c-8 -13 -8 -20 -2 -20 6 0 13 7 17 15 9 24 -1 27 -15 5z"/>
<path d="M2156 1664 c-8 -20 -8 -24 2 -24 4 0 8 9 9 20 2 24 -3 26 -11 4z"/>
<path d="M721 1651 c-7 -5 -11 -15 -9 -22 3 -10 8 -7 17 9 13 24 12 26 -8 13z"/>
<path d="M736 1614 c-9 -8 -16 -20 -16 -26 0 -6 1 -9 3 -7 1 2 11 14 21 27 22
25 16 30 -8 6z"/>
<path d="M2138 1624 c-5 -4 -8 -16 -8 -28 0 -14 3 -17 11 -9 6 6 9 19 7 28 -1
9 -6 13 -10 9z"/>
<path d="M665 1611 c-3 -6 -2 -11 4 -11 11 0 26 -38 23 -57 -4 -21 15 -14 21
7 3 11 2 20 -2 20 -4 0 -7 10 -7 22 1 24 -27 37 -39 19z"/>
<path d="M836 1582 c-3 -5 1 -9 9 -9 8 0 12 4 9 9 -3 4 -7 8 -9 8 -2 0 -6 -4
-9 -8z"/>
<path d="M734 1558 c-5 -13 -8 -25 -9 -28 0 -3 -6 -15 -13 -27 -7 -13 -8 -23
-3 -23 5 0 12 6 15 13 4 6 4 1 2 -12 -5 -22 -3 -22 30 10 38 37 47 67 15 49
-29 -15 -32 -13 -25 15 8 31 -2 33 -12 3z"/>
<path d="M1979 1557 c7 -9 11 -23 8 -30 -3 -8 -2 -20 3 -27 6 -9 10 -7 15 9 3
11 11 21 16 21 14 0 11 27 -3 27 -7 0 -22 4 -33 9 -18 7 -18 6 -6 -9z"/>
<path d="M774 1482 c-12 -10 -27 -28 -34 -41 -10 -19 -9 -26 4 -39 14 -14 19
-14 34 -4 9 7 25 15 35 18 9 4 17 13 17 21 0 10 -6 13 -16 9 -13 -5 -14 -1 -9
24 7 34 -1 37 -31 12z m1 -52 c-10 -11 -23 -20 -29 -20 -6 0 0 9 14 20 32 25
38 25 15 0z"/>
<path d="M1970 1470 c0 -5 5 -10 11 -10 5 0 7 5 4 10 -3 6 -8 10 -11 10 -2 0
-4 -4 -4 -10z"/>
<path d="M910 1450 c-8 -5 -12 -12 -9 -15 4 -3 12 1 19 10 14 17 11 19 -10 5z"/>
<path d="M2050 1441 c0 -6 4 -13 10 -16 6 -3 7 1 4 9 -7 18 -14 21 -14 7z"/>
<path d="M980 1400 c-8 -5 -10 -10 -5 -10 6 0 17 5 25 10 8 5 11 10 5 10 -5 0
-17 -5 -25 -10z"/>
<path d="M1392 1388 c-27 -29 -41 -81 -20 -73 10 4 14 16 11 33 -3 22 -2 24 6
10 13 -19 10 -50 -7 -70 -16 -20 -3 -30 15 -12 9 8 22 13 30 10 8 -3 12 -2 8
3 -3 5 -1 11 4 13 13 4 44 78 33 78 -5 0 -14 -10 -21 -22 l-11 -23 6 23 c5 21
-10 52 -25 52 -4 0 -17 -10 -29 -22z"/>
<path d="M1330 1362 c0 -7 -5 -11 -11 -9 -6 1 -14 -4 -16 -10 -3 -7 3 -13 11
-13 17 0 33 26 22 37 -3 4 -6 1 -6 -5z"/>
<path d="M1990 1360 c-13 -9 -13 -10 0 -10 11 -1 10 -4 -4 -15 -11 -8 -15 -15
-9 -15 7 0 15 5 18 10 4 6 12 7 18 3 8 -5 8 -2 0 9 -7 8 -10 18 -6 21 9 10 0
8 -17 -3z"/>
<path d="M988 1323 c-10 -2 -18 -8 -18 -13 0 -10 31 -22 38 -15 3 3 -1 5 -8 5
-9 0 -7 5 6 15 19 14 14 17 -18 8z"/>
<path d="M800 1289 c0 -5 5 -7 10 -4 6 3 10 8 10 11 0 2 -4 4 -10 4 -5 0 -10
-5 -10 -11z"/>
<path d="M2002 1275 c9 -10 21 -16 28 -13 7 2 -1 10 -16 17 -27 12 -28 11 -12
-4z"/>
<path d="M234 1244 c3 -9 6 -22 6 -30 0 -8 5 -14 10 -14 6 0 10 9 10 20 0 11
5 20 10 20 6 0 10 -10 10 -22 0 -19 2 -20 10 -8 9 13 11 13 20 0 5 -8 10 -11
10 -6 0 5 6 3 14 -3 10 -9 16 -8 26 3 16 21 3 39 -24 32 -13 -3 -31 1 -42 9
-27 20 -68 20 -60 -1z"/>
<path d="M397 1254 c-10 -11 -8 -52 3 -59 5 -3 18 -1 29 5 14 7 22 7 27 -1 4
-7 9 -8 17 0 6 6 16 7 28 1 11 -7 20 -7 24 0 3 6 15 6 29 0 21 -8 24 -6 22 15
0 13 -9 28 -18 34 -15 9 -18 8 -18 -10 0 -14 -4 -18 -12 -12 -19 11 -71 13
-84 2 -8 -7 -11 -4 -10 8 1 18 -24 29 -37 17z m123 -34 c0 -5 -5 -10 -11 -10
-5 0 -7 5 -4 10 3 6 8 10 11 10 2 0 4 -4 4 -10z"/>
<path d="M1920 1241 c0 -5 7 -12 16 -15 14 -5 15 -4 4 9 -14 17 -20 19 -20 6z"/>
<path d="M1530 1189 c0 -5 5 -7 10 -4 6 3 10 8 10 11 0 2 -4 4 -10 4 -5 0 -10
-5 -10 -11z"/>
<path d="M1038 1183 c7 -3 16 -2 19 1 4 3 -2 6 -13 5 -11 0 -14 -3 -6 -6z"/>
<path d="M1870 1171 c0 -5 7 -12 16 -15 14 -5 15 -4 4 9 -14 17 -20 19 -20 6z"/>
<path d="M177 1153 c-5 -8 9 -53 16 -53 3 0 5 11 5 25 0 26 -13 42 -21 28z"/>
<path d="M211 1128 c0 -26 2 -29 8 -14 6 15 9 16 13 5 8 -21 56 -23 61 -1 4
16 5 16 6 0 2 -27 17 -22 16 5 -1 19 -8 29 -17 26 -19 -6 -57 -5 -70 3 -16 7
-18 4 -17 -24z"/>
<path d="M342 1133 c3 -30 29 -38 40 -13 6 13 7 13 7 0 1 -11 10 -16 29 -15
15 0 30 -3 33 -7 9 -14 43 18 36 35 -4 12 -19 15 -66 13 -34 -1 -61 2 -61 6 0
4 -5 8 -11 8 -6 0 -9 -12 -7 -27z"/>
<path d="M500 1134 c0 -21 5 -31 15 -31 8 0 15 7 15 16 0 11 3 11 14 -4 11
-16 17 -17 29 -7 10 9 17 10 22 2 14 -22 35 -10 35 21 0 31 0 31 -24 15 -14
-9 -27 -12 -30 -8 -2 4 -17 8 -33 7 -15 0 -31 4 -35 10 -4 5 -8 -4 -8 -21z"/>
<path d="M1736 1143 c-6 -14 -5 -15 5 -6 7 7 10 15 7 18 -3 3 -9 -2 -12 -12z"/>
<path d="M1760 1140 c0 -11 7 -20 15 -20 8 0 15 -9 15 -20 0 -11 4 -20 9 -20
5 0 5 15 -1 35 -12 39 -38 56 -38 25z"/>
<path d="M1060 1121 c0 -5 11 -8 25 -8 14 0 25 3 25 8 0 5 -11 9 -25 9 -14 0
-25 -4 -25 -9z"/>
<path d="M1836 1100 c8 -31 20 -45 28 -32 3 5 -3 21 -15 33 l-20 24 7 -25z"/>
<path d="M1065 1090 c-3 -6 1 -7 9 -4 18 7 21 14 7 14 -6 0 -13 -4 -16 -10z"/>
<path d="M1396 1085 c4 -8 10 -12 15 -9 11 6 2 24 -11 24 -5 0 -7 -7 -4 -15z"/>
<path d="M1474 1071 c4 -5 1 -11 -6 -13 -6 -2 -8 -10 -4 -16 4 -7 12 -10 17
-7 13 8 11 45 -2 45 -5 0 -8 -4 -5 -9z"/>
<path d="M248 1062 c-26 -5 -24 -52 1 -52 11 0 22 8 24 18 4 16 5 16 6 0 1
-13 10 -18 31 -18 24 0 30 4 30 21 0 17 -5 20 -26 16 -14 -2 -31 1 -37 7 -7 6
-20 10 -29 8z"/>
<path d="M370 1042 c0 -27 2 -28 48 -28 26 1 52 4 59 9 6 4 14 1 16 -5 4 -10
8 -9 16 2 6 8 11 10 11 4 0 -6 14 -11 30 -12 23 0 30 4 30 18 0 16 -8 18 -75
16 -56 -1 -75 2 -75 11 0 18 -10 16 -26 -4 -13 -17 -13 -17 -14 0 0 29 -20 19
-20 -11z"/>
<path d="M1030 1046 c0 -9 7 -12 20 -9 11 3 17 9 14 14 -8 14 -34 10 -34 -5z"/>
<path d="M1434 1036 c-9 -20 -8 -23 8 -18 20 5 22 11 10 29 -5 8 -11 4 -18
-11z"/>
<path d="M1405 1040 c3 -5 8 -10 11 -10 2 0 4 5 4 10 0 6 -5 10 -11 10 -5 0
-7 -4 -4 -10z"/>
<path d="M1386 1005 c-3 -8 -1 -17 3 -20 5 -3 11 2 15 10 3 8 1 17 -3 20 -5 3
-11 -2 -15 -10z"/>
<path d="M1197 983 c-4 -3 -7 -11 -7 -17 0 -6 5 -5 12 2 6 6 9 14 7 17 -3 3
-9 2 -12 -2z"/>
<path d="M1406 967 c-8 -32 -7 -37 8 -37 13 0 26 20 26 40 0 20 -28 17 -34 -3z"/>
<path d="M1255 899 c-11 -17 1 -21 15 -4 8 9 8 15 2 15 -6 0 -14 -5 -17 -11z"/>
</g>
</svg>
