<?xml version="1.0" encoding="UTF-8" standalone="no"?>
<svg
   xmlns:dc="http://purl.org/dc/elements/1.1/"
   xmlns:cc="http://creativecommons.org/ns#"
   xmlns:rdf="http://www.w3.org/1999/02/22-rdf-syntax-ns#"
   xmlns:svg="http://www.w3.org/2000/svg"
   xmlns="http://www.w3.org/2000/svg"
   viewBox="0 0 4293.3335 2666.6667"
   height="2666.6667"
   width="4293.3335"
   xml:space="preserve"
   id="svg2"
   version="1.1"><metadata
     id="metadata8"><rdf:RDF><cc:Work
         rdf:about=""><dc:format>image/svg+xml</dc:format><dc:type
           rdf:resource="http://purl.org/dc/dcmitype/StillImage" /></cc:Work></rdf:RDF></metadata><defs
     id="defs6" /><g
     transform="matrix(1.3333333,0,0,-1.3333333,0,2666.6667)"
     id="g10"><g
       transform="scale(0.1)"
       id="g12"><g
         transform="scale(1.97546)"
         id="g14"><path
           id="path16"
           style="fill:#ffffff;fill-opacity:1;fill-rule:nonzero;stroke:none"
           d="M 16300,0 H 0 V 10124.2 H 16300 V 0" /></g><path
         id="path18"
         style="fill:#3c8f7c;fill-opacity:1;fill-rule:nonzero;stroke:none"
         d="m 10887.2,2058.7 h -348.7 l -94.2,921.3 h 537.1 l -94.2,-921.3" /><path
         id="path20"
         style="fill:#3c8f7c;fill-opacity:1;fill-rule:nonzero;stroke:none"
         d="m 8983.24,2058.7 h -348.66 l -94.21,921.3 h 537.07 l -94.2,-921.3" /><path
         id="path22"
         style="fill:#184655;fill-opacity:1;fill-rule:nonzero;stroke:none"
         d="m 12435.4,2058.7 h -348.6 l -94.3,921.3 h 537.1 l -94.2,-921.3" /><path
         id="path24"
         style="fill:#184655;fill-opacity:1;fill-rule:nonzero;stroke:none"
         d="m 10631.1,12549.4 h -64.1 v 3171.8 h 64.1 v -3171.8" /><path
         id="path26"
         style="fill:#184655;fill-opacity:1;fill-rule:nonzero;stroke:none"
         d="m 10239.9,9155.1 h -155.6 v 6113.2 h 155.6 V 9155.1" /><path
         id="path28"
         style="fill:#184655;fill-opacity:1;fill-rule:nonzero;stroke:none"
         d="m 11318.2,9084.2 c -552.5,0 -1000.4,119.9 -1000.4,267.8 0,27.3 15.3,53.7 43.7,78.5 l -4.8,1.7 h -402.13 l -1.26,-0.5 c 29.26,-25.1 45.04,-51.9 45.04,-79.7 0,-189.3 -627.13,-269.1 -1013.14,-267.8 h -0.24 v -58.1 h 2357.53 v 58.1 l -0.5,0.1 c -7.9,0 -15.8,-0.1 -23.8,-0.1" /><path
         id="path30"
         style="fill:#184655;fill-opacity:1;fill-rule:nonzero;stroke:none"
         d="m 10669.1,15220.6 h -904.84 c -102.84,0 -186.21,83.3 -186.21,186.2 v 42 h 1277.25 v -42 c 0,-102.9 -83.3,-186.2 -186.2,-186.2" /><g
         transform="scale(1.09435)"
         id="g32"><path
           id="path34"
           style="fill:#f47458;fill-opacity:1;fill-rule:nonzero;stroke:none"
           d="m 11010.2,14263.2 c 0,-47.1 -198.3,-89.7 -517.5,-119.7 -1067.77,-100.8 -2857.51,-27.2 -2857.51,119.7 0,5.8 1102.55,2036.8 1102.55,2036.8 h 1169.94 c 0,0 1102.52,-2031 1102.52,-2036.8" /></g><path
         id="path36"
         style="fill:#184655;fill-opacity:1;fill-rule:nonzero;stroke:none"
         d="m 10709.4,12516 c 0,-54.9 -48.4,-99.4 -108.1,-99.4 -59.8,0 -108.2,44.5 -108.2,99.4 0,54.9 48.4,99.4 108.2,99.4 59.7,0 108.1,-44.5 108.1,-99.4" /><path
         id="path38"
         style="fill:#3c8f7c;fill-opacity:1;fill-rule:nonzero;stroke:none"
         d="M 12770.2,2958.7 V 9026.5 H 6786.43 V 2958.7 h 5983.77" /><path
         id="path40"
         style="fill:#184655;fill-opacity:1;fill-rule:nonzero;stroke:none"
         d="M 12770.2,2958.7 V 9026.5 H 11034.9 V 2958.7 h 1735.3" /><path
         id="path42"
         style="fill:#184655;fill-opacity:1;fill-rule:nonzero;stroke:none"
         d="M 11040.6,6934.3 H 6955.31 v 104.6 h 4085.29 v -104.6" /><path
         id="path44"
         style="fill:#184655;fill-opacity:1;fill-rule:nonzero;stroke:none"
         d="M 11040.6,5255.3 H 6955.31 v 104.6 h 4085.29 v -104.6" /><g
         transform="scale(1.43437)"
         id="g46"><path
           id="path48"
           style="fill:#184655;fill-opacity:1;fill-rule:nonzero;stroke:none"
           d="m 16300,1435.19 -71.9,2332.03 c -2.5,80.31 -52.8,150.17 -128.2,177.99 -21.5,7.94 -44.3,11.99 -67.4,11.99 -2.1,0 -4.2,-0.07 -6.3,-0.14 -52.3,-1.61 -100.9,-23.5 -136.8,-61.63 -35.8,-38.14 -54.6,-87.99 -53,-140.34 0.1,-4.12 0.5,-9.21 0.9,-13.81 l 235.3,-2306.09 h 227.4" /></g><g
         transform="scale(1.60458)"
         id="g50"><path
           id="path52"
           style="fill:#184655;fill-opacity:1;fill-rule:nonzero;stroke:none"
           d="m 15884.1,1274.29 64.3,2084.65 c 2.2,71.8 47.2,134.24 114.6,159.05 19.2,7.1 39.6,10.72 60.3,10.72 1.8,0 3.7,0 5.6,-0.07 46.8,-1.43 90.1,-21 122.2,-55.09 32,-34.09 48.9,-78.65 47.5,-125.45 -0.2,-3.74 -0.5,-8.29 -0.9,-12.34 l -210.3,-2061.47 h -203.3" /></g><g
         transform="scale(1.62775)"
         id="g54"><path
           id="path56"
           style="fill:#b75742;fill-opacity:1;fill-rule:nonzero;stroke:none"
           d="m 16025.1,3122.23 h -2115.9 c -151.7,0 -274.8,123.05 -274.8,274.86 v 0 c 0,187.49 151.9,339.42 339.4,339.42 h 1986.8 c 187.4,0 339.4,-151.93 339.4,-339.42 v 0 c 0,-151.81 -123.1,-274.86 -274.9,-274.86" /></g><g
         transform="scale(1.82096)"
         id="g58"><path
           id="path60"
           style="fill:#184655;fill-opacity:1;fill-rule:nonzero;stroke:none"
           d="M 16243.8,1130.56 H 2152.04 c -29.92,0 -56.05,-22.57 -57.99,-52.45 -2.12,-32.72 23.8,-59.96 56.07,-59.96 H 16243.8 c 31,0 56.2,25.2 56.2,56.23 v 0 c 0,31.03 -25.2,56.18 -56.2,56.18" /></g><g
         transform="scale(1.73214)"
         id="g62"><path
           id="path64"
           style="fill:#f47458;fill-opacity:1;fill-rule:nonzero;stroke:none"
           d="m 16300,1188.41 c -5,29.56 -28.5,51.91 -56.9,51.91 h -1039.8 c -28.3,0 -51.9,-22.35 -56.8,-51.91 H 16300" /></g><g
         transform="scale(1.66598)"
         id="g66"><path
           id="path68"
           style="fill:#f48c7f;fill-opacity:1;fill-rule:nonzero;stroke:none"
           d="m 16132.8,1288.67 -330.7,0.84 c 0,0 64.9,129.77 181,192.56 116.2,62.78 316.9,61.46 316.9,61.46 l -167.2,-254.86" /></g><g
         transform="scale(1.67517)"
         id="g70"><path
           id="path72"
           style="fill:#b75742;fill-opacity:1;fill-rule:nonzero;stroke:none"
           d="m 16277.7,1280.88 c 0,0 22.3,246.54 -62.9,254.19 -85.3,7.64 -170.5,-253.47 -170.5,-253.47 l 233.4,-0.72" /></g><g
         transform="scale(1.80975)"
         id="g74"><path
           id="path76"
           style="fill:#f48c7f;fill-opacity:1;fill-rule:nonzero;stroke:none"
           d="m 16300,1137.73 c -3.5,117.14 -108.1,211.19 -236.8,211.19 -128.7,0 -233.4,-94.05 -236.9,-211.19 h 473.7" /></g><g
         transform="scale(1.81303)"
         id="g78"><path
           id="path80"
           style="fill:#f47458;fill-opacity:1;fill-rule:nonzero;stroke:none"
           d="m 16300,1135.17 c -2.4,28.02 -13.4,49.26 -26.8,49.26 H 15784 c -13.3,0 -24.4,-21.24 -26.8,-49.26 h 542.8" /></g><path
         id="path82"
         style="fill:#100062;fill-opacity:1;fill-rule:nonzero;stroke:none"
         d="m 13689,13869.9 c 405.9,57.8 783.7,-94.4 1068.9,-388.6 653,-673.5 149.4,-1104.9 364.2,-1987 -120.2,-133.7 -268.9,-239 -462.5,-290.7 -914.9,-255.5 -1941.8,-111.7 -2633.3,581.5 -3.6,3.3 -7.3,6.6 -10.9,10 194.5,503.1 520.6,1195.3 653.7,1361.4 257.5,321 518.2,642.1 1019.9,713.4" /><path
         id="path84"
         style="fill:#f6a390;fill-opacity:1;fill-rule:nonzero;stroke:none"
         d="m 13643.1,11999.7 c 0,0 -4,-20.8 -11.1,-56.1 -34.3,-169.5 -141.3,-674.2 -230.4,-828.8 -107.7,-186.8 243.5,-1027.5 702,-954.7 136.6,21.6 -77.5,451.8 -31.4,660.1 26.1,117.8 105.2,484.5 169,781 49.1,227.9 89.1,414.2 89.1,414.2 l -687.2,-15.7" /><path
         id="path86"
         style="fill:#f47458;fill-opacity:1;fill-rule:nonzero;stroke:none"
         d="m 13632,11943.6 c -3.3,-16.2 -7.2,-35.5 -11.8,-57.2 47.3,-82.1 111,-158.6 194.6,-225.7 138.6,-111.3 276.7,-157.4 405.7,-155.7 7.1,32.6 14,64.9 20.7,96.2 49.1,227.9 89.1,414.2 89.1,414.2 l -687.2,-15.7 c 0,0 -4,-20.8 -11.1,-56.1" /><path
         id="path88"
         style="fill:#f6a390;fill-opacity:1;fill-rule:nonzero;stroke:none"
         d="m 14118,13499.2 c 0,0 -280.3,-35.7 -483.3,-276.6 -203,-241 -421.9,-986 82.5,-1391.1 504.3,-405 1002.7,53.5 1076.6,539.6 73.8,486.2 58.9,1145.7 -675.8,1128.1" /><path
         id="path90"
         style="fill:#f6a390;fill-opacity:1;fill-rule:nonzero;stroke:none"
         d="m 14871.5,12376.8 c -60.2,-107.3 -161.3,-166.8 -225.7,-132.7 -64.5,34 -67.9,148.6 -7.7,256 60.2,107.4 161.2,166.8 225.7,132.8 64.4,-34 67.9,-148.7 7.7,-256.1" /><path
         id="path92"
         style="fill:#100062;fill-opacity:1;fill-rule:nonzero;stroke:none"
         d="m 14203.3,13510.5 c 0,0 -432.7,-708.5 -742.2,-741.3 -309.6,-32.7 -350.2,-409.2 -350.2,-409.2 0,0 110.6,867.5 417.1,1034.8 306.5,167.3 675.3,115.7 675.3,115.7" /><path
         id="path94"
         style="fill:#f6a390;fill-opacity:1;fill-rule:nonzero;stroke:none"
         d="m 13562.3,12600.4 c 25.2,-125.8 -25.5,-241.2 -113.1,-257.7 -87.6,-16.5 -179.1,72.1 -204.3,197.9 -25.1,125.8 25.5,241.2 113.1,257.7 87.7,16.6 179.1,-72.1 204.3,-197.9" /><g
         transform="scale(1.22183)"
         id="g96"><path
           id="path98"
           style="fill:#ff3b3b;fill-opacity:1;fill-rule:nonzero;stroke:none"
           d="m 8958.5,8614.63 69.48,35.45 c 412.01,210.42 910.6,36.19 1115.62,-389.85 l 1516.2,-3151.6 c 186,-386.39 610.3,-581.67 1011.5,-465.53 l 2770.6,801.74 c 374,108.21 760.9,-122.84 858.1,-512.42 v 0 L 11732.3,3378.77 8958.5,8614.63" /></g><g
         transform="scale(1.65337)"
         id="g100"><path
           id="path102"
           style="fill:#f48c7f;fill-opacity:1;fill-rule:nonzero;stroke:none"
           d="m 14512.7,4021.61 c 0,0 1657.7,97.2 1722.5,-5.38 64.8,-102.64 -566.8,-248.77 -626.3,-286.21 -508.2,-319.22 -462.3,-122.72 -575.7,-95.68 -113.4,26.97 -423.3,41.67 -423.3,41.67 l -97.2,345.6" /></g><g
         transform="scale(1.51159)"
         id="g104"><path
           id="path106"
           style="fill:#fae0b2;fill-opacity:1;fill-rule:nonzero;stroke:none"
           d="m 9660.03,3649.54 c 0,0 65.5,-121.79 127.49,-151.83 228.78,-110.74 671.78,57.36 671.78,57.36 l 2786.6,643.56 2953.3,-196.02 c 0,0 100.8,361.01 52,508.67 l -2705,569.73 L 10441,4765.85 9660.03,3649.54" /></g><g
         transform="scale(1.22183)"
         id="g108"><path
           id="path110"
           style="fill:#ff3b3b;fill-opacity:1;fill-rule:nonzero;stroke:none"
           d="m 16300,4869.32 v 0 c -13.6,103.86 -31.6,207.15 -95.2,283.18 -168.4,201.25 -488.2,283.83 -758.1,208.45 L 12151.5,4344.37 c -28.7,-8.84 -59.9,-3.03 -83.6,15.55 -32.6,25.62 -75.7,57.45 -82.2,51.32 -147.4,-139.71 -232.2,-1024.45 -232.2,-1024.45 l 4.4,-8.02 4542.1,1490.55" /></g><g
         transform="scale(1.59014)"
         id="g112"><path
           id="path114"
           style="fill:#f7a491;fill-opacity:1;fill-rule:nonzero;stroke:none"
           d="m 14758.1,4118.75 c 0,0 260.8,-104.96 478.1,-214.88 93.6,-47.42 199.3,-145.96 239,-155.71 187.5,-46.1 229.1,63.89 304.8,177.59 47.8,71.76 254.7,271.55 389.3,407.89 78.8,79.8 130.7,192.94 95.5,230.29 -105.2,111.82 -363.8,-178.78 -579,-253.31 -114.1,-39.49 -237.4,-4.65 -359.1,23.84 -144,33.71 -332.2,144.77 -332.2,144.77 l -236.4,-360.48" /></g><path
         id="path116"
         style="fill:#355389;fill-opacity:1;fill-rule:nonzero;stroke:none"
         d="m 14098.2,3693.2 c -138.4,0 -272,76.1 -340.2,208.8 l -3158.8,6148.9 c -97.5,189.7 -24.3,423.4 163.4,521.9 187.8,98.5 419,24.6 516.5,-165.2 l 3158.8,-6148.8 c 97.4,-189.8 24.3,-423.5 -163.5,-522 -56.4,-29.6 -116.7,-43.6 -176.2,-43.6" /><g
         transform="scale(1.2449)"
         id="g118"><path
           id="path120"
           style="fill:#355389;fill-opacity:1;fill-rule:nonzero;stroke:none"
           d="m 16249.9,4720.13 c -50.1,170.94 -229.4,268.86 -400.4,218.65 -50.7,-14.86 -4560.7,-1338.17 -4641.4,-1361.87 l 256.9,-596.92 4566.1,1339.87 c 171,50.12 268.9,229.33 218.8,400.27" /></g><path
         id="path122"
         style="fill:#355389;fill-opacity:1;fill-rule:nonzero;stroke:none"
         d="m 13610.2,2058.7 781.9,1911.1 c 4.1,10.2 8,21.1 11.3,31.8 56.9,188.2 -49.5,386.9 -237.7,443.9 -188.3,57 -387,-49.5 -444,-237.7 L 13078,2080.4 c -2.1,-6.9 -4,-14.7 -5.4,-21.7 h 537.6" /><g
         transform="scale(1.49487)"
         id="g124"><path
           id="path126"
           style="fill:#f7cc7f;fill-opacity:1;fill-rule:nonzero;stroke:none"
           d="m 10646,4834.08 c 0,0 1902.6,1082.64 2655.9,1175.83 286.4,35.38 2998.1,-1364.21 2998.1,-1364.21 l -283.4,-489.87 c 0,0 -1652,419.7 -2158.4,626.01 -145.4,59.2 -543.3,315.54 -543.3,315.54 L 10646,4834.08" /></g><g
         transform="scale(1.14901)"
         id="g128"><path
           id="path130"
           style="fill:#f48c7f;fill-opacity:1;fill-rule:nonzero;stroke:none"
           d="m 12203,9329.65 c 0,0 2148.6,-1582.65 2358,-1609.98 157.7,-20.53 1739,462.84 1739,462.84 l -296.9,-590.68 c 0,0 -1297,-729.33 -1760.7,-709.74 -544.2,22.97 -1820.9,1100.07 -1820.9,1100.07 L 12203,9329.65" /></g><path
         id="path132"
         style="fill:#3c8f7c;fill-opacity:1;fill-rule:nonzero;stroke:none"
         d="m 16029.9,9234.4 c 0,0 -578.2,-832.1 -592.1,-1055.3 l -1214.1,915.8 -202.3,1625 2008.5,-1485.5" /><path
         id="path134"
         style="fill:#50bfa5;fill-opacity:1;fill-rule:nonzero;stroke:none"
         d="m 12745.2,11180.2 c 0,0 -299.3,-820.2 -178.8,-1811.2 120.5,-991 2033.9,-4026.1 2033.9,-4026.1 0,0 404.5,62.7 711.4,423.7 129,151.7 602.7,1459.7 602.7,1459.7 0,0 -602.7,589.2 -656.2,977.6 -53.6,388.4 -112.5,803.8 -273.2,1406.4 -160.7,602.7 -1664,1837.7 -2239.8,1569.9" /><g
         transform="scale(1.18634)"
         id="g136"><path
           id="path138"
           style="fill:#355389;fill-opacity:1;fill-rule:nonzero;stroke:none"
           d="m 10746,5515.85 4532.3,273.37 346.7,-483.34 c 50.1,-2332.63 60.5,-3234.81 62.6,-3571.05 h 440.2 c 24.3,375.94 74.2,1313.78 172.2,3652.22 -0.8,-0.33 -698.3,692.81 -874.8,824.3 -4249.6,-16.85 -4700.7,-18.63 -4702,-18.63 -195,-1.6 -347.3,-166.05 -335.7,-359.16 11.3,-186.71 171.8,-329 358.5,-317.71" /></g><path
         id="path140"
         style="fill:#f6a390;fill-opacity:1;fill-rule:nonzero;stroke:none"
         d="m 14686.9,9671.2 -875.8,-1309 c 0,0 -134.3,880.5 -239.1,1827.5 -406.8,-55.2 -769.1,-164.3 -1122.6,-361.2 170.5,-921.9 723.6,-2464.1 1227.4,-2650.2 392.2,-144.7 1122,1779.6 1122,1779.6 l -111.9,713.3" /><path
         id="path142"
         style="fill:#3c8f7c;fill-opacity:1;fill-rule:nonzero;stroke:none"
         d="m 13578.7,10513.6 c -60.3,291 -130.7,583 -445.3,675.3 -195,57.1 -413.7,2.4 -569.5,-125.2 -185.3,-151.9 -237.1,-395.6 -236.2,-626.2 1.9,-523.6 163.5,-1034.4 323.9,-1543.5 353.6,196.9 677.2,135.8 1084,191 37.9,465.9 -78.3,1049.4 -156.9,1428.6" /><path
         id="path144"
         style="fill:#b75742;fill-opacity:1;fill-rule:nonzero;stroke:none"
         d="m 15223.1,9126.8 147.6,-0.1 -18.5,157.2 h -129.1 c -61,0 -110.6,70.5 -110.6,157.2 v 157.2 c 0,86.7 49.6,157.2 110.6,157.2 h 166 v 157.1 h -166 c -122,0 -221.2,-141 -221.2,-314.3 v -157.2 c 0,-173.3 99.2,-314.3 221.2,-314.3" /><path
         id="path146"
         style="fill:#b75742;fill-opacity:1;fill-rule:nonzero;stroke:none"
         d="M 16239.2,9936.4 V 9187 c 0,-172.2 -139.6,-311.8 -311.7,-311.8 h -267.2 c -172.1,0 -311.7,139.6 -311.7,311.8 v 844.5 h 890.6 v -95.1" /><path
         id="path148"
         style="fill:#f6a390;fill-opacity:1;fill-rule:nonzero;stroke:none"
         d="m 15101.3,9916.5 c 74.8,1.9 243.9,-97 264.8,-180 20.8,-83 -22.9,-177.2 -19,-235.8 3.5,-52.5 16.8,-136.3 -2.6,-204 -5.4,-18.9 -103.4,-127.8 -115.6,-168.6 -12.1,-40.8 -442.1,-199 -442.1,-199 l -105.7,737.2 c 0,0 98.5,242.4 420.2,250.2" /><g
         transform="scale(1.12033)"
         id="g150"><path
           id="path152"
           style="fill:#ba2222;fill-opacity:1;fill-rule:nonzero;stroke:none"
           d="m 15464.4,9881.53 -535.5,-2263.65 c -12.8,-54.09 7.3,-108.81 44.3,-120.59 l 825.2,-261.53 501.6,2012.09 c 0,0 -531.3,503.81 -730.6,692.7 -36.9,34.93 -89.8,5.19 -105,-59.02" /></g><g
         transform="scale(1.11312)"
         id="g154"><path
           id="path156"
           style="fill:#fae0b2;fill-opacity:1;fill-rule:nonzero;stroke:none"
           d="m 15139.1,7763.7 469.1,1982.5 c 15.2,64.62 68.5,94.61 105.6,59.43 162.9,-154.43 409.2,-387.96 586.2,-555.78 l -453.1,-1817.65 -663.1,210.21 c -37.2,11.77 -57.5,66.94 -44.7,121.29" /></g><g
         transform="scale(1.17583)"
         id="g158"><path
           id="path160"
           style="fill:#ff3b3b;fill-opacity:1;fill-rule:nonzero;stroke:none"
           d="M 15301.4,9628.07 14246,6977.94 c -24.4,-61.06 -1.1,-123.49 48.4,-130.12 l 1155,-155.72 850.6,2091.27 -864.5,899.06 c -38.9,40.54 -107.4,12.8 -134.1,-54.36" /></g><g
         transform="scale(1.16237)"
         id="g162"><path
           id="path164"
           style="fill:#f48c7f;fill-opacity:1;fill-rule:nonzero;stroke:none"
           d="m 16291.2,8115.5 c 0,0 8.8,224.97 -79,166.47 -87.9,-58.5 -74.7,-193.48 -96.7,-220.49 -22,-27.02 -74.6,-72.02 -87.8,-162 -13.2,-89.99 -74.7,-152.97 -83.5,-211.47 -8.8,-58.5 -4.4,-108.05 -4.4,-108.05 0,0 285.5,36.04 294.3,157.52 8.8,121.48 57.1,378.02 57.1,378.02" /></g><path
         id="path166"
         style="fill:#fae0b2;fill-opacity:1;fill-rule:nonzero;stroke:none"
         d="m 3753.83,6221.3 c -7.36,-63 37.69,-120 100.63,-127.3 62.94,-7.4 119.94,37.6 127.3,100.6 7.36,62.9 -37.7,119.9 -100.63,127.3 -62.94,7.4 -119.94,-37.7 -127.3,-100.6" /><path
         id="path168"
         style="fill:#f47458;fill-opacity:1;fill-rule:nonzero;stroke:none"
         d="m 3924.53,6144.9 c -42.87,-65.3 -144.85,-28.1 -135.8,49.3 4.69,40.2 40.98,69.9 82.3,65 55.09,-6.4 83.3,-68.8 53.5,-114.2 v -0.1" /><path
         id="path170"
         style="fill:#fae0b2;fill-opacity:1;fill-rule:nonzero;stroke:none"
         d="m 3178.7,6048.1 c 40.88,-48.4 34.79,-120.8 -13.63,-161.7 -48.41,-40.9 -120.8,-34.8 -161.69,13.6 -40.89,48.4 -34.79,120.8 13.62,161.7 48.4,40.9 120.81,34.8 161.7,-13.6" /><path
         id="path172"
         style="fill:#f47458;fill-opacity:1;fill-rule:nonzero;stroke:none"
         d="m 3155.71,5901.7 c -31.25,-26.4 -78.14,-22.4 -104.53,8.8 -21.03,24.9 -23.27,61.3 -5.43,88.5 3.9,6 8.69,11.4 14.23,16 15.14,12.8 34.36,18.9 54.1,17.3 65.82,-5.5 91.64,-88.4 41.63,-130.6" /><path
         id="path174"
         style="fill:#fae0b2;fill-opacity:1;fill-rule:nonzero;stroke:none"
         d="m 3696.11,6224.5 c 0.21,-63.3 -50.99,-114.9 -114.36,-115.1 -63.36,-0.2 -114.91,51 -115.11,114.4 -0.21,63.3 51,114.9 114.36,115.1 63.37,0.2 114.92,-51 115.11,-114.4" /><path
         id="path176"
         style="fill:#f47458;fill-opacity:1;fill-rule:nonzero;stroke:none"
         d="m 3584.42,6127.1 c -59.27,-0.2 -94.37,65.9 -62.36,114.8 40.68,62.1 136.08,32 136.3,-40.3 0.13,-40.8 -32.77,-74.3 -73.94,-74.5" /><path
         id="path178"
         style="fill:#fae0b2;fill-opacity:1;fill-rule:nonzero;stroke:none"
         d="m 4205.9,6027.1 c -40.57,-48.7 -112.92,-55.2 -161.6,-14.7 -48.67,40.6 -55.25,113 -14.67,161.6 40.57,48.7 112.92,55.3 161.6,14.7 48.68,-40.6 55.25,-112.9 14.67,-161.6" /><path
         id="path180"
         style="fill:#f47458;fill-opacity:1;fill-rule:nonzero;stroke:none"
         d="m 4162.23,6033.8 c -26.19,-31.5 -73.07,-35.7 -104.49,-9.5 -31.25,26 -35.99,72.6 -9.49,104.5 26.19,31.4 73.06,35.6 104.49,9.4 31.26,-26 35.99,-72.6 9.49,-104.4" /><path
         id="path182"
         style="fill:#fae0b2;fill-opacity:1;fill-rule:nonzero;stroke:none"
         d="m 3338.16,4702.9 c 28.43,56.7 5.58,125.6 -51.05,154.1 -56.63,28.4 -125.59,5.6 -154.03,-51.1 -28.44,-56.6 -5.57,-125.6 51.05,-154 56.62,-28.4 125.59,-5.6 154.03,51" /><path
         id="path184"
         style="fill:#f47458;fill-opacity:1;fill-rule:nonzero;stroke:none"
         d="m 3310.28,4732.8 c -20.62,-31.5 -61.58,-42.4 -95.28,-25.5 -39.34,19.8 -53.17,69.7 -28.69,107.1 20.62,31.4 61.57,42.4 95.27,25.5 39.6,-19.9 53.14,-69.8 28.7,-107.1 v 0" /><path
         id="path186"
         style="fill:#fae0b2;fill-opacity:1;fill-rule:nonzero;stroke:none"
         d="m 2953.67,5091.5 c 58.18,25.2 85,92.7 59.89,150.9 -25.1,58.1 -92.62,85 -150.81,59.9 -58.19,-25.2 -85,-92.7 -59.9,-150.9 25.11,-58.1 92.63,-84.9 150.82,-59.9" /><path
         id="path188"
         style="fill:#f47458;fill-opacity:1;fill-rule:nonzero;stroke:none"
         d="m 2992.25,5162.7 c -32.07,-49 -106.66,-43.1 -130.11,11.3 -16.24,37.7 1.08,81.3 38.71,97.5 67.32,29.1 131.63,-47.4 91.4,-108.8 v 0" /><path
         id="path190"
         style="fill:#fae0b2;fill-opacity:1;fill-rule:nonzero;stroke:none"
         d="m 2908.9,5636.4 c 60.72,-18.2 124.66,16.3 142.82,77 18.17,60.7 -16.32,124.7 -77.03,142.8 -60.71,18.2 -124.65,-16.3 -142.82,-77 -18.16,-60.7 16.32,-124.6 77.03,-142.8" /><path
         id="path192"
         style="fill:#f47458;fill-opacity:1;fill-rule:nonzero;stroke:none"
         d="m 2897.58,5701.9 c -9.4,17.5 -11.46,37.5 -5.78,56.5 18.93,63.2 105.13,71.9 136.36,14 9.41,-17.5 11.45,-37.5 5.79,-56.5 -18.89,-63.1 -105.1,-72 -136.37,-14" /><path
         id="path194"
         style="fill:#fae0b2;fill-opacity:1;fill-rule:nonzero;stroke:none"
         d="m 2979.7,5039.9 c 54.76,31.9 125,13.3 156.88,-41.4 31.87,-54.8 13.31,-125 -41.46,-156.9 -54.77,-31.9 -125,-13.3 -156.87,41.5 -31.88,54.7 -13.32,125 41.45,156.8" /><path
         id="path196"
         style="fill:#f47458;fill-opacity:1;fill-rule:nonzero;stroke:none"
         d="m 3036.8,4882.9 c -63.43,16.8 -75.51,102.6 -18.37,135.8 35.36,20.6 80.87,8.6 101.45,-26.8 33.33,-57.3 -19.76,-125.7 -83.08,-109" /><path
         id="path198"
         style="fill:#fae0b2;fill-opacity:1;fill-rule:nonzero;stroke:none"
         d="m 3224.82,6082.5 c 34.83,-52.9 105.98,-67.6 158.91,-32.7 52.95,34.8 67.62,105.9 32.79,158.9 -34.83,52.9 -105.97,67.6 -158.91,32.8 -52.94,-34.9 -67.62,-106 -32.79,-159" /><path
         id="path200"
         style="fill:#f47458;fill-opacity:1;fill-rule:nonzero;stroke:none"
         d="m 3371.7,6063.1 c -34.18,-22.5 -80.27,-13 -102.75,21.2 -22.43,34.1 -13.21,80.1 21.19,102.7 34.19,22.5 80.27,13 102.75,-21.2 16.28,-24.7 16.3,-56.7 0.08,-81.5 -1.74,-2.1 -7.49,-12.2 -21.27,-21.2" /><path
         id="path202"
         style="fill:#fae0b2;fill-opacity:1;fill-rule:nonzero;stroke:none"
         d="m 2895.67,5580.1 c 62.45,-10.8 104.33,-70.1 93.54,-132.6 -10.79,-62.4 -70.16,-104.3 -132.6,-93.5 -62.44,10.8 -104.32,70.1 -93.53,132.6 10.78,62.4 70.15,104.3 132.59,93.5" /><path
         id="path204"
         style="fill:#f47458;fill-opacity:1;fill-rule:nonzero;stroke:none"
         d="m 2886.46,5392.8 c -52.82,9.1 -78.43,69.5 -49.48,113.7 16.23,24.8 45.57,37.5 74.74,32.5 40.31,-7 67.44,-45.5 60.48,-85.8 -7.01,-40.5 -45.5,-67.4 -85.74,-60.4" /><path
         id="path206"
         style="fill:#f47458;fill-opacity:1;fill-rule:nonzero;stroke:none"
         d="m 3709.54,5494.7 140.06,601.4 -21.1,4.9 -145.94,-626.6 -74.22,639 -21.52,-2.5 71.24,-613.3 -279.39,550.6 -19.32,-9.8 291.1,-573.7 -467.61,441.9 -14.87,-15.8 448.8,-424 -567.96,242.2 -8.5,-19.9 591.79,-252.4 -642.26,37.7 -1.26,-21.6 616.34,-36.2 -590.75,-179.5 6.3,-20.7 615.59,187 -516.27,-383.9 12.92,-17.4 495.43,368.4 -337.18,-517.2 18.15,-11.8 758.14,1156.9 -18.08,11.9 -339.63,-515.6" /><path
         id="path208"
         style="fill:#f47458;fill-opacity:1;fill-rule:nonzero;stroke:none"
         d="m 6084.94,3911.4 -50.81,-77.5 -2425.13,1588.7 50.8,77.6 2425.14,-1588.8" /><path
         id="path210"
         style="fill:#fae0b2;fill-opacity:1;fill-rule:nonzero;stroke:none"
         d="m 4921.31,9153.9 c -62.52,-87.2 -42.54,-208.6 44.62,-271.1 87.16,-62.5 208.51,-42.5 271.03,44.7 62.52,87.1 42.54,208.4 -44.62,271 -87.16,62.5 -208.51,42.5 -271.03,-44.6" /><path
         id="path212"
         style="fill:#f47458;fill-opacity:1;fill-rule:nonzero;stroke:none"
         d="m 5111.52,8900.9 c -117.11,-61.7 -237.55,77.1 -160.73,184.2 39.95,55.8 118,69.9 175.22,28.9 76.31,-54.8 66.93,-170.2 -14.48,-213.1 h -0.01" /><path
         id="path214"
         style="fill:#fae0b2;fill-opacity:1;fill-rule:nonzero;stroke:none"
         d="m 3927.63,9369.1 c 20.85,-105.2 -47.56,-207.4 -152.78,-228.3 -105.22,-20.8 -207.41,47.6 -228.26,152.8 -20.84,105.2 47.56,207.4 152.77,228.3 105.23,20.8 207.43,-47.6 228.27,-152.8" /><path
         id="path216"
         style="fill:#f47458;fill-opacity:1;fill-rule:nonzero;stroke:none"
         d="m 3773.55,9171.2 c -67.91,-13.5 -134.12,30.8 -147.58,98.7 -10.72,54.2 15.82,109.9 64.53,135.5 10.69,5.7 22.22,9.7 34.23,12.1 32.92,6.5 66.39,-0.2 94.26,-18.8 92.92,-62.2 63.23,-206 -45.44,-227.5" /><path
         id="path218"
         style="fill:#fae0b2;fill-opacity:1;fill-rule:nonzero;stroke:none"
         d="m 4838.53,9206 c -51.66,-94 -169.74,-128.3 -263.75,-76.6 -94.01,51.6 -128.34,169.7 -76.68,263.7 51.67,94 169.76,128.3 263.77,76.7 94.01,-51.7 128.33,-169.8 76.66,-263.8" /><path
         id="path220"
         style="fill:#f47458;fill-opacity:1;fill-rule:nonzero;stroke:none"
         d="m 4593.27,9153.4 c -87.92,48.3 -85.69,175 1.76,221.1 111.16,58.6 227.75,-64.2 168.76,-171.5 -33.27,-60.5 -109.45,-83.2 -170.52,-49.6" /><path
         id="path222"
         style="fill:#fae0b2;fill-opacity:1;fill-rule:nonzero;stroke:none"
         d="m 5431.52,8495.6 c -100,-38.8 -212.52,10.8 -251.33,110.8 -38.81,100 10.8,212.5 110.8,251.3 100,38.8 212.53,-10.8 251.33,-110.8 38.81,-100 -10.79,-212.5 -110.8,-251.3" /><path
         id="path224"
         style="fill:#f47458;fill-opacity:1;fill-rule:nonzero;stroke:none"
         d="m 5372.32,8541.3 c -64.56,-25.1 -137.45,7.1 -162.5,71.6 -24.93,64.2 6.25,137.1 71.62,162.5 64.55,25.1 137.47,-7 162.51,-71.6 24.91,-64.2 -6.26,-137 -71.63,-162.5" /><path
         id="path226"
         style="fill:#fae0b2;fill-opacity:1;fill-rule:nonzero;stroke:none"
         d="m 3060.6,7246.4 c 88.55,60.5 111.26,181.4 50.72,270 -60.54,88.5 -181.4,111.2 -269.95,50.7 -88.55,-60.6 -111.26,-181.4 -50.72,-270 60.53,-88.5 181.4,-111.2 269.95,-50.7" /><path
         id="path228"
         style="fill:#f47458;fill-opacity:1;fill-rule:nonzero;stroke:none"
         d="m 3043.83,7313.5 c -56.35,-29.7 -126,-12.3 -162.02,40.4 -42.06,61.5 -21.58,146.8 45.33,182.1 56.33,29.6 125.98,12.3 162.01,-40.4 42.31,-61.9 21.45,-146.9 -45.32,-182.1 v 0" /><path
         id="path230"
         style="fill:#fae0b2;fill-opacity:1;fill-rule:nonzero;stroke:none"
         d="m 2809.94,8137.2 c 106.75,-10.5 201.83,67.4 212.37,174.2 10.55,106.7 -67.45,201.8 -174.19,212.4 -106.74,10.5 -201.83,-67.5 -212.37,-174.2 -10.55,-106.8 67.45,-201.8 174.19,-212.4" /><path
         id="path232"
         style="fill:#f47458;fill-opacity:1;fill-rule:nonzero;stroke:none"
         d="m 2925.42,8210.9 c -87.65,-46.2 -193.25,23.7 -183.37,123.5 6.82,69 68.25,119.5 137.3,112.6 123.52,-12.2 156.01,-178.2 46.08,-236.1 h -0.01" /><path
         id="path234"
         style="fill:#fae0b2;fill-opacity:1;fill-rule:nonzero;stroke:none"
         d="m 3190.49,8980.7 c 75,-76.7 197.96,-78.1 274.65,-3 76.7,75 78.07,197.9 3.07,274.6 -75,76.7 -197.97,78.1 -274.66,3.1 -76.69,-75 -78.06,-198 -3.06,-274.7" /><path
         id="path236"
         style="fill:#f47458;fill-opacity:1;fill-rule:nonzero;stroke:none"
         d="m 3227.48,9087 c 0.36,33.6 13.77,65 37.75,88.4 79.86,78.1 214.6,20.2 213.38,-91.2 -0.38,-33.5 -13.8,-64.9 -37.78,-88.3 -79.65,-77.9 -214.62,-20.4 -213.35,91.1" /><path
         id="path238"
         style="fill:#fae0b2;fill-opacity:1;fill-rule:nonzero;stroke:none"
         d="m 2806.17,8039.4 c 107.24,2.3 196.03,-82.8 198.31,-190 2.28,-107.3 -82.81,-196.1 -190.05,-198.3 -107.24,-2.3 -196.03,82.8 -198.31,190 -2.28,107.3 82.81,196 190.05,198.3" /><path
         id="path240"
         style="fill:#f47458;fill-opacity:1;fill-rule:nonzero;stroke:none"
         d="m 2761.93,7760 c -80.18,76.9 -27.7,213.8 84.21,216.3 69.22,1.4 126.75,-53.7 128.22,-122.9 2.4,-112.2 -132.38,-170.1 -212.43,-93.4" /><path
         id="path242"
         style="fill:#fae0b2;fill-opacity:1;fill-rule:nonzero;stroke:none"
         d="m 4024.2,9382.3 c 8.16,-107 101.48,-187 208.44,-178.9 106.95,8.2 187.05,101.5 178.89,208.5 -8.17,106.9 -101.49,187 -208.45,178.8 -106.96,-8.1 -187.04,-101.4 -178.88,-208.4" /><path
         id="path244"
         style="fill:#f47458;fill-opacity:1;fill-rule:nonzero;stroke:none"
         d="m 4225.71,9233 c -69.04,-5.3 -129.49,46.6 -134.77,115.6 -5.25,68.9 46.16,129.5 115.66,134.8 69.04,5.3 129.49,-46.6 134.76,-115.7 3.81,-49.9 -22.37,-97.3 -66.71,-120.7 -4.33,-1.7 -21.08,-11.9 -48.94,-14" /><path
         id="path246"
         style="fill:#fae0b2;fill-opacity:1;fill-rule:nonzero;stroke:none"
         d="m 3124.75,8908.2 c 83.62,-67.1 96.94,-189.4 29.77,-273 -67.19,-83.6 -189.44,-97 -273.06,-29.8 -83.62,67.2 -96.95,189.4 -29.76,273.1 67.18,83.6 189.43,96.9 273.05,29.7" /><path
         id="path248"
         style="fill:#f47458;fill-opacity:1;fill-rule:nonzero;stroke:none"
         d="m 2957.46,8638.3 c -70.74,56.9 -59.14,167.3 19.99,209 44.35,23.4 98.25,18.2 137.31,-13.2 53.97,-43.3 62.61,-122.5 19.24,-176.5 -43.64,-54.3 -122.65,-62.5 -176.54,-19.3" /><path
         id="path250"
         style="fill:#f47458;fill-opacity:1;fill-rule:nonzero;stroke:none"
         d="m 4259.93,8114.3 700.51,775.6 -27.2,24.6 -729.99,-808.2 414.2,1007.2 -33.91,14 -397.52,-966.7 37.85,1044.5 -36.63,1.4 -39.44,-1088.3 -330.08,1037.7 -34.93,-11.1 316.8,-996 -642.39,824.5 -28.91,-22.5 669.33,-859.1 -920.11,582.6 -19.61,-31 882.98,-559.1 -1021.96,218.7 -7.67,-35.9 1064.94,-227.8 -1079.35,-145.2 4.89,-36.3 1035.78,139.3 -923.46,-489.4 17.18,-32.4 2071.47,1091.5 -17.02,32.4 -925.75,-485" /><path
         id="path252"
         style="fill:#f47458;fill-opacity:1;fill-rule:nonzero;stroke:none"
         d="M 6478.94,3821.7 6340.1,3748.5 4051.87,8090 l 138.85,73.2 2288.22,-4341.5" /><path
         id="path254"
         style="fill:#355389;fill-opacity:1;fill-rule:nonzero;stroke:none"
         d="m 6225.77,3698.7 c 0,0 1589.49,1179.8 1807.3,1688.3 217.81,508.5 -231.29,451 -231.29,451 0,0 641.82,909.4 471.46,1209.9 -170.35,300.6 -524.79,-83.2 -524.79,-83.2 0,0 297.75,1230.2 38.86,1298.6 -482.2,127.5 -877.87,-1196.5 -877.87,-1196.5 0,0 35.5,549.7 -266.33,475.6 -455.16,-111.6 -214.4,-1295.1 -214.4,-1295.1 0,0 -145.08,209.9 -394.69,10.2 -447.87,-358.1 191.75,-2558.8 191.75,-2558.8" /><path
         id="path256"
         style="fill:#13375b;fill-opacity:1;fill-rule:nonzero;stroke:none"
         d="m 5966.68,6226.9 c 249.62,199.7 462.03,20.4 462.03,20.4 0,0 -240.76,1183.5 214.4,1295.1 301.83,74.1 266.33,-475.6 266.33,-475.6 0,0 395.67,1324 877.87,1196.5 L 6213.93,3702.4 c -70.35,284.9 -665.58,2190 -247.25,2524.5" /><path
         id="path258"
         style="fill:#86b1f2;fill-opacity:1;fill-rule:nonzero;stroke:none"
         d="m 6227.91,3739.7 c 0,0 1628.86,1.7 1965.05,284 336.2,282.3 -76.18,304.3 -76.18,304.3 0,0 778.46,413.2 767.1,688.8 -11.37,275.5 -275.26,220 -275.26,220 0,0 538.05,482 427.59,715.6 -169.75,359.1 -939.28,-321.9 -939.28,-321.9 0,0 58.84,273.1 -179.82,330.2 -359.93,86 -725.08,-937.3 -725.08,-937.3 0,0 172.12,461 -75.13,409.7 -443.63,-91.8 -888.99,-1693.4 -888.99,-1693.4" /><path
         id="path260"
         style="fill:#355389;fill-opacity:1;fill-rule:nonzero;stroke:none"
         d="m 6160.25,3649 c 0,0 -1445.74,1233.7 -1622.14,1730.7 -176.4,497 247.42,415.1 247.42,415.1 0,0 -555.5,904.2 -375.2,1179.7 180.3,275.6 494.26,-111 494.26,-111 0,0 -208.68,1188.5 41.79,1238 466.51,92 762.68,-1191.7 762.68,-1191.7 0,0 -0.44,525.1 282.23,436.4 426.3,-133.9 125.44,-1245.2 125.44,-1245.2 0,0 157.34,415.5 382.73,210.4 404.4,-368 -339.21,-2662.4 -339.21,-2662.4" /><path
         id="path262"
         style="fill:#466eb6;fill-opacity:1;fill-rule:nonzero;stroke:none"
         d="m 6551.15,6369.7 c -261.29,156.8 -391.07,-52 -391.07,-52 0,0 257.51,894.6 -168.79,1028.5 -282.67,88.7 -282.23,-436.4 -282.23,-436.4 0,0 -296.17,1283.7 -762.68,1191.7 L 6166.74,3666.6 c 84.22,266.8 695.66,2516.4 384.41,2703.1" /><path
         id="path264"
         style="fill:#9bc1f9;fill-opacity:1;fill-rule:nonzero;stroke:none"
         d="m 6014.66,3826.1 c 0,0 -1588.14,-0.6 -1809.05,25.1 -220.89,25.7 23.15,222.9 23.15,222.9 0,0 -494.16,-18 -569.49,102.2 -75.33,120.2 126.51,167.5 126.51,167.5 0,0 -492.13,142.6 -468.63,247.3 43.75,194.9 587.29,67.9 587.29,67.9 0,0 -201.88,97.9 -119.82,189 123.73,137.4 652.18,-236.1 652.18,-236.1 0,0 -198.37,375.3 -81.33,422.8 209.99,85.3 1659.19,-1208.6 1659.19,-1208.6" /><path
         id="path266"
         style="fill:#f7cc7f;fill-opacity:1;fill-rule:nonzero;stroke:none"
         d="m 4868.2,2038.5 h 2643.22 c 336.65,307.4 541.76,730.9 534.27,1195.5 -3.78,234.6 -52.06,439.1 -152.79,639.9 l -3407.92,-38.3 c -94.19,-204 -144.73,-428.1 -140.94,-662.7 7.13,-442.6 205.88,-841.5 524.16,-1134.4" /><g
         transform="scale(1.00844)"
         id="g268"><path
           id="path270"
           style="fill:#9bc1f9;fill-opacity:1;fill-rule:nonzero;stroke:none"
           d="m 15684.6,10659.9 v 0 c 1.1,0.1 1.1,0.1 0,0 z m 266.9,1043.8 c 62.8,207.8 -76.1,435.5 -283.7,426.7 -43.4,-1.8 -45.7,-64.2 -2.3,-68.9 1,-0.5 125.4,-5.7 164.2,-143.5 10.6,-36.3 11.7,-75.1 5.1,-111.5 -13.1,-70.6 -47.1,-95.8 -93.2,-163.8 l 81.3,-40.3 c 154.4,-76.4 241.9,-250.2 231.6,-389.6 -9,-119.8 -25.9,-182.2 -109.6,-285.7 -118.9,-133 -274.3,-126.1 -291.7,-129.9 -86.2,-22.6 -147.7,-70.7 -162.2,-156.4 -8,-126.1 0.8,-226.3 18.9,-307.2 8.5,-37.5 63.1,-38.1 72.7,-1.1 24.5,112.5 24.5,120.6 45.7,290.4 0.7,1.4 1,2.8 1.2,4.3 0.8,1.1 1.2,2.2 1.6,3.5 3.7,3.5 9.5,17.7 47.4,27.8 11.9,2.8 183.9,-11.3 348,133.5 273.5,238 253.8,710.6 -75,911.7" /></g><path
         id="path272"
         style="fill:#fae0b2;fill-opacity:1;fill-rule:nonzero;stroke:none"
         d="m 6525.13,9058 h 1755.41 c 155.66,0 281.85,136 281.85,303.9 v 0 c 0,167.9 -126.19,303.9 -281.85,303.9 H 6525.13 v 0 c 134.16,-168.5 139.42,-415.6 12.52,-590.6 l -12.52,-17.2" /><path
         id="path274"
         style="fill:#f47458;fill-opacity:1;fill-rule:nonzero;stroke:none"
         d="m 8539.27,9361.9 v 0 c 0,167.9 -127.64,303.9 -285.1,303.9 H 6493.19 c -8.22,0 -14.85,7.2 -14.76,16 v 0 c 0.07,8.6 6.66,15.5 14.76,15.5 h 2793.55 c 173.78,0 314.64,-150.2 314.64,-335.4 v 0 c 0,-185.3 -140.86,-335.4 -314.65,-335.4 H 6493.2 c -8.1,0 -14.69,6.9 -14.77,15.6 v 0 c -0.07,8.7 6.56,15.9 14.77,15.9 h 1760.97 c 157.46,0 285.1,136 285.1,303.9" /></g></g></svg>